<svg xmlns="http://www.w3.org/2000/svg" width="47" height="47" viewBox="0 0 47 47" fill="none">
  <g clip-path="url(#clip0_2037_3251)">
    <path d="M13.2734 35.6267L13.6767 36.03L14.0835 35.6303L16.8166 32.9452L17.2307 32.5383L16.8203 32.1278L14.1351 29.4427L5.98372 21.2913L5.58044 20.888L5.17361 21.2877L2.4405 23.9729L2.02641 24.3797L2.43689 24.7902L13.2734 35.6267ZM24.11 35.6267L24.5168 36.0336L24.9237 35.6267L45.2542 15.2962L45.6575 14.8929L45.2578 14.4861L42.5726 11.753L42.1658 11.3389L41.7553 11.7494L24.5168 28.9879L16.7723 21.2433L16.3618 20.8329L15.955 21.247L13.2698 23.9801L12.8701 24.3869L13.2734 24.7902L24.11 35.6267ZM24.1136 24.7938L24.5204 25.1935L24.9237 24.7902L34.4177 15.2962L34.8281 14.8857L34.414 14.4789L31.6809 11.7938L31.2741 11.3941L30.8708 11.7973L21.3769 21.2913L20.9664 21.7018L21.3805 22.1086L24.1136 24.7938Z" fill="url(#paint0_linear_2037_3251)"/>
    <path d="M13.2734 35.6267L13.6767 36.03L14.0835 35.6303L16.8166 32.9452L17.2307 32.5383L16.8203 32.1278L14.1351 29.4427L5.98372 21.2913L5.58044 20.888L5.17361 21.2877L2.4405 23.9729L2.02641 24.3797L2.43689 24.7902L13.2734 35.6267ZM24.11 35.6267L24.5168 36.0336L24.9237 35.6267L45.2542 15.2962L45.6575 14.8929L45.2578 14.4861L42.5726 11.753L42.1658 11.3389L41.7553 11.7494L24.5168 28.9879L16.7723 21.2433L16.3618 20.8329L15.955 21.247L13.2698 23.9801L12.8701 24.3869L13.2734 24.7902L24.11 35.6267ZM24.1136 24.7938L24.5204 25.1935L24.9237 24.7902L34.4177 15.2962L34.8281 14.8857L34.414 14.4789L31.6809 11.7938L31.2741 11.3941L30.8708 11.7973L21.3769 21.2913L20.9664 21.7018L21.3805 22.1086L24.1136 24.7938Z" fill="url(#paint1_linear_2037_3251)"/>
    <path d="M13.2734 35.6267L13.6767 36.03L14.0835 35.6303L16.8166 32.9452L17.2307 32.5383L16.8203 32.1278L14.1351 29.4427L5.98372 21.2913L5.58044 20.888L5.17361 21.2877L2.4405 23.9729L2.02641 24.3797L2.43689 24.7902L13.2734 35.6267ZM24.11 35.6267L24.5168 36.0336L24.9237 35.6267L45.2542 15.2962L45.6575 14.8929L45.2578 14.4861L42.5726 11.753L42.1658 11.3389L41.7553 11.7494L24.5168 28.9879L16.7723 21.2433L16.3618 20.8329L15.955 21.247L13.2698 23.9801L12.8701 24.3869L13.2734 24.7902L24.11 35.6267ZM24.1136 24.7938L24.5204 25.1935L24.9237 24.7902L34.4177 15.2962L34.8281 14.8857L34.414 14.4789L31.6809 11.7938L31.2741 11.3941L30.8708 11.7973L21.3769 21.2913L20.9664 21.7018L21.3805 22.1086L24.1136 24.7938Z" stroke="url(#paint2_linear_2037_3251)" stroke-width="1.15078"/>
    <path d="M13.2734 35.6267L13.6767 36.03L14.0835 35.6303L16.8166 32.9452L17.2307 32.5383L16.8203 32.1278L14.1351 29.4427L5.98372 21.2913L5.58044 20.888L5.17361 21.2877L2.4405 23.9729L2.02641 24.3797L2.43689 24.7902L13.2734 35.6267ZM24.11 35.6267L24.5168 36.0336L24.9237 35.6267L45.2542 15.2962L45.6575 14.8929L45.2578 14.4861L42.5726 11.753L42.1658 11.3389L41.7553 11.7494L24.5168 28.9879L16.7723 21.2433L16.3618 20.8329L15.955 21.247L13.2698 23.9801L12.8701 24.3869L13.2734 24.7902L24.11 35.6267ZM24.1136 24.7938L24.5204 25.1935L24.9237 24.7902L34.4177 15.2962L34.8281 14.8857L34.414 14.4789L31.6809 11.7938L31.2741 11.3941L30.8708 11.7973L21.3769 21.2913L20.9664 21.7018L21.3805 22.1086L24.1136 24.7938Z" stroke="url(#paint3_linear_2037_3251)" stroke-width="1.15078"/>
  </g>
  <defs>
    <linearGradient id="paint0_linear_2037_3251" x1="23.8455" y1="12.1563" x2="23.8455" y2="35.2199" gradientUnits="userSpaceOnUse">
      <stop stop-color="white"/>
      <stop offset="1" stop-color="#ABACAB"/>
    </linearGradient>
    <linearGradient id="paint1_linear_2037_3251" x1="24.3953" y1="35.2199" x2="24.2025" y2="13.1871" gradientUnits="userSpaceOnUse">
      <stop stop-color="white"/>
      <stop offset="1" stop-color="#FFEEC5"/>
    </linearGradient>
    <linearGradient id="paint2_linear_2037_3251" x1="23.8455" y1="12.1563" x2="23.8455" y2="35.2199" gradientUnits="userSpaceOnUse">
      <stop stop-color="white"/>
      <stop offset="1" stop-color="#ABACAB"/>
    </linearGradient>
    <linearGradient id="paint3_linear_2037_3251" x1="24.3953" y1="35.2199" x2="24.2025" y2="13.1871" gradientUnits="userSpaceOnUse">
      <stop stop-color="white"/>
      <stop offset="1" stop-color="#FFEEC5"/>
    </linearGradient>
    <clipPath id="clip0_2037_3251">
      <rect width="46.0313" height="46.0313" fill="white" transform="translate(0.828125 0.695312)"/>
    </clipPath>
  </defs>
</svg>