<svg xmlns="http://www.w3.org/2000/svg" width="53" height="54" viewBox="0 0 53 54" fill="none">
  <g clip-path="url(#clip0_2037_3256)">
    <path d="M19.744 38.0315L28.865 43.0066V48.9418H13.5907C11.1686 48.9418 9.22656 46.9997 9.22656 44.5777V9.66488C9.22656 8.50745 9.68635 7.39742 10.5048 6.579C11.3232 5.76057 12.4332 5.30078 13.5907 5.30078H15.7727V20.5751L21.2278 17.3021L26.683 20.5751V5.30078H39.7752C40.9327 5.30078 42.0427 5.76057 42.8611 6.579C43.6796 7.39742 44.1393 8.50745 44.1393 9.66488V28.2996L40.8663 26.5103L19.744 38.0315ZM52.8675 38.0315L40.8663 31.4854L28.865 38.0315L40.8663 44.5777L52.8675 38.0315ZM33.2291 42.592V46.9561L40.8663 51.1238L48.5034 46.9561V42.592L40.8663 46.7597L33.2291 42.592Z" fill="url(#paint0_linear_2037_3256)"/>
    <path d="M19.744 38.0315L28.865 43.0066V48.9418H13.5907C11.1686 48.9418 9.22656 46.9997 9.22656 44.5777V9.66488C9.22656 8.50745 9.68635 7.39742 10.5048 6.579C11.3232 5.76057 12.4332 5.30078 13.5907 5.30078H15.7727V20.5751L21.2278 17.3021L26.683 20.5751V5.30078H39.7752C40.9327 5.30078 42.0427 5.76057 42.8611 6.579C43.6796 7.39742 44.1393 8.50745 44.1393 9.66488V28.2996L40.8663 26.5103L19.744 38.0315ZM52.8675 38.0315L40.8663 31.4854L28.865 38.0315L40.8663 44.5777L52.8675 38.0315ZM33.2291 42.592V46.9561L40.8663 51.1238L48.5034 46.9561V42.592L40.8663 46.7597L33.2291 42.592Z" fill="url(#paint1_linear_2037_3256)"/>
  </g>
  <defs>
    <linearGradient id="paint0_linear_2037_3256" x1="31.0471" y1="5.30078" x2="31.0471" y2="51.1238" gradientUnits="userSpaceOnUse">
      <stop stop-color="white"/>
      <stop offset="1" stop-color="#ABACAB"/>
    </linearGradient>
    <linearGradient id="paint1_linear_2037_3256" x1="31.6183" y1="51.1238" x2="30.8858" y2="7.35775" gradientUnits="userSpaceOnUse">
      <stop stop-color="white"/>
      <stop offset="1" stop-color="#FFEEC5"/>
    </linearGradient>
    <clipPath id="clip0_2037_3256">
      <rect width="52.3692" height="52.3692" fill="white" transform="translate(0.5 0.9375)"/>
    </clipPath>
  </defs>
</svg>