<svg xmlns="http://www.w3.org/2000/svg" width="48" height="47" viewBox="0 0 48 47" fill="none">
  <path d="M20.7541 29.8455L20.744 29.8221C20.5416 29.7742 20.3404 29.7217 20.1405 29.6645L20.1254 29.6594C18.213 29.1097 16.447 28.1414 14.9552 26.8246C13.3146 25.3773 12.053 23.5507 11.2803 21.504C10.5076 19.4573 10.2473 17.2526 10.5221 15.0822C10.797 12.9119 11.5986 10.8417 12.857 9.05214C14.1155 7.26263 15.7926 5.80815 17.7422 4.8155C19.6917 3.82286 21.8545 3.3222 24.0419 3.35718C26.2294 3.39216 28.375 3.96172 30.2918 5.0162C32.2087 6.07067 33.8384 7.57804 35.039 9.40688C36.2396 11.2357 36.9746 13.3305 37.1799 15.5085C37.2453 16.2009 36.677 16.7659 35.9812 16.7659C35.2872 16.7659 34.7323 16.2009 34.6518 15.5102C34.4302 13.6046 33.7094 11.7912 32.5623 10.2535C31.4152 8.71572 29.8824 7.50806 28.1189 6.75259C26.3555 5.99711 24.4238 5.72059 22.5192 5.95098C20.6146 6.18138 18.8046 6.91052 17.2722 8.06469C15.7397 9.21887 14.5391 10.7572 13.7918 12.5241C13.0444 14.291 12.7768 16.2239 13.0159 18.1275C13.2551 20.031 13.9926 21.8376 15.1538 23.3647C16.315 24.8919 17.8588 26.0854 19.6292 26.8246L19.6962 26.8531C20.0315 26.9905 20.3757 27.1118 20.7289 27.2169C21.0256 26.4999 21.5619 25.908 22.2462 25.5421C22.9305 25.1763 23.7205 25.0591 24.4816 25.2106C25.2426 25.3621 25.9276 25.7729 26.4196 26.3729C26.9117 26.9729 27.1804 27.725 27.1799 28.501C27.1806 29.2716 26.9159 30.0189 26.4303 30.6172C25.9447 31.2155 25.2679 31.6283 24.5137 31.7861C23.7594 31.9439 22.9739 31.8371 22.2891 31.4837C21.6044 31.1302 21.0623 30.5518 20.7541 29.8455ZM19.1011 31.978C16.1229 31.0518 13.4823 29.2715 11.5068 26.8581C10.2825 27.0015 9.15348 27.5895 8.33419 28.5105C7.51489 29.4315 7.06235 30.6213 7.0625 31.8539V33.0526C7.0625 39.2856 14.1203 43.5891 23.827 43.5891C33.5336 43.5891 40.5915 39.0492 40.5915 33.0526V31.8539C40.5915 30.5201 40.0616 29.2408 39.1184 28.2976C38.1752 27.3544 36.896 26.8246 35.5621 26.8246H29.4515C29.8469 28.149 29.7621 29.5706 29.212 30.8386C28.6618 32.1066 27.6817 33.1397 26.4444 33.7558C25.207 34.3719 23.7919 34.5313 22.4485 34.2061C21.1051 33.8808 19.9196 33.0918 19.1011 31.978ZM32.2092 16.7659C32.2092 14.2311 31.086 11.9595 29.3073 10.4222C28.4148 9.65231 27.37 9.07929 26.2411 8.74055C25.1122 8.40181 23.9245 8.30495 22.7556 8.45632C21.5867 8.60768 20.4629 9.00385 19.4575 9.61897C18.4521 10.2341 17.5877 11.0543 16.9208 12.0261C16.2539 12.9979 15.7994 14.0995 15.587 15.2588C15.3746 16.4182 15.4092 17.6093 15.6883 18.7544C15.9675 19.8996 16.485 20.9729 17.2071 21.9045C17.9292 22.836 18.8396 23.6048 19.8789 24.1607C20.9591 23.1781 22.3668 22.6335 23.827 22.6334C25.2878 22.6331 26.6961 23.1777 27.7767 24.1607C29.116 23.4452 30.2359 22.3793 31.0166 21.0768C31.7973 19.7744 32.2095 18.2844 32.2092 16.7659Z" fill="url(#paint0_linear_2037_3271)"/>
  <path d="M20.7541 29.8455L20.744 29.8221C20.5416 29.7742 20.3404 29.7217 20.1405 29.6645L20.1254 29.6594C18.213 29.1097 16.447 28.1414 14.9552 26.8246C13.3146 25.3773 12.053 23.5507 11.2803 21.504C10.5076 19.4573 10.2473 17.2526 10.5221 15.0822C10.797 12.9119 11.5986 10.8417 12.857 9.05214C14.1155 7.26263 15.7926 5.80815 17.7422 4.8155C19.6917 3.82286 21.8545 3.3222 24.0419 3.35718C26.2294 3.39216 28.375 3.96172 30.2918 5.0162C32.2087 6.07067 33.8384 7.57804 35.039 9.40688C36.2396 11.2357 36.9746 13.3305 37.1799 15.5085C37.2453 16.2009 36.677 16.7659 35.9812 16.7659C35.2872 16.7659 34.7323 16.2009 34.6518 15.5102C34.4302 13.6046 33.7094 11.7912 32.5623 10.2535C31.4152 8.71572 29.8824 7.50806 28.1189 6.75259C26.3555 5.99711 24.4238 5.72059 22.5192 5.95098C20.6146 6.18138 18.8046 6.91052 17.2722 8.06469C15.7397 9.21887 14.5391 10.7572 13.7918 12.5241C13.0444 14.291 12.7768 16.2239 13.0159 18.1275C13.2551 20.031 13.9926 21.8376 15.1538 23.3647C16.315 24.8919 17.8588 26.0854 19.6292 26.8246L19.6962 26.8531C20.0315 26.9905 20.3757 27.1118 20.7289 27.2169C21.0256 26.4999 21.5619 25.908 22.2462 25.5421C22.9305 25.1763 23.7205 25.0591 24.4816 25.2106C25.2426 25.3621 25.9276 25.7729 26.4196 26.3729C26.9117 26.9729 27.1804 27.725 27.1799 28.501C27.1806 29.2716 26.9159 30.0189 26.4303 30.6172C25.9447 31.2155 25.2679 31.6283 24.5137 31.7861C23.7594 31.9439 22.9739 31.8371 22.2891 31.4837C21.6044 31.1302 21.0623 30.5518 20.7541 29.8455ZM19.1011 31.978C16.1229 31.0518 13.4823 29.2715 11.5068 26.8581C10.2825 27.0015 9.15348 27.5895 8.33419 28.5105C7.51489 29.4315 7.06235 30.6213 7.0625 31.8539V33.0526C7.0625 39.2856 14.1203 43.5891 23.827 43.5891C33.5336 43.5891 40.5915 39.0492 40.5915 33.0526V31.8539C40.5915 30.5201 40.0616 29.2408 39.1184 28.2976C38.1752 27.3544 36.896 26.8246 35.5621 26.8246H29.4515C29.8469 28.149 29.7621 29.5706 29.212 30.8386C28.6618 32.1066 27.6817 33.1397 26.4444 33.7558C25.207 34.3719 23.7919 34.5313 22.4485 34.2061C21.1051 33.8808 19.9196 33.0918 19.1011 31.978ZM32.2092 16.7659C32.2092 14.2311 31.086 11.9595 29.3073 10.4222C28.4148 9.65231 27.37 9.07929 26.2411 8.74055C25.1122 8.40181 23.9245 8.30495 22.7556 8.45632C21.5867 8.60768 20.4629 9.00385 19.4575 9.61897C18.4521 10.2341 17.5877 11.0543 16.9208 12.0261C16.2539 12.9979 15.7994 14.0995 15.587 15.2588C15.3746 16.4182 15.4092 17.6093 15.6883 18.7544C15.9675 19.8996 16.485 20.9729 17.2071 21.9045C17.9292 22.836 18.8396 23.6048 19.8789 24.1607C20.9591 23.1781 22.3668 22.6335 23.827 22.6334C25.2878 22.6331 26.6961 23.1777 27.7767 24.1607C29.116 23.4452 30.2359 22.3793 31.0166 21.0768C31.7973 19.7744 32.2095 18.2844 32.2092 16.7659Z" fill="url(#paint1_linear_2037_3271)"/>
  <defs>
    <linearGradient id="paint0_linear_2037_3271" x1="23.827" y1="3.35547" x2="23.827" y2="43.5891" gradientUnits="userSpaceOnUse">
      <stop stop-color="white"/>
      <stop offset="1" stop-color="#ABACAB"/>
    </linearGradient>
    <linearGradient id="paint1_linear_2037_3271" x1="24.2658" y1="43.5891" x2="23.531" y2="5.16482" gradientUnits="userSpaceOnUse">
      <stop stop-color="white"/>
      <stop offset="1" stop-color="#FFEEC5"/>
    </linearGradient>
  </defs>
</svg>