<svg xmlns="http://www.w3.org/2000/svg" width="50" height="50" viewBox="0 0 50 50" fill="none">
  <path d="M19.9022 28.5917L24.668 24.9763L29.4132 28.5917L27.6055 22.7372L32.3712 18.9575H26.5373L24.668 13.1852L22.7986 18.9575H16.9647L21.7099 22.7372L19.9022 28.5917ZM41.1016 21.0117C41.1016 11.9322 33.7475 4.57812 24.668 4.57812C15.5884 4.57812 8.23438 11.9322 8.23438 21.0117C8.23438 25.1817 9.79557 28.9615 12.3428 31.8579V47.7163L24.668 43.6079L36.9932 47.7163V31.8579C39.6419 28.866 41.1034 25.0077 41.1016 21.0117ZM24.668 8.68652C31.4674 8.68652 36.9932 14.2123 36.9932 21.0117C36.9932 27.8111 31.4674 33.3369 24.668 33.3369C17.8686 33.3369 12.3428 27.8111 12.3428 21.0117C12.3428 14.2123 17.8686 8.68652 24.668 8.68652Z" fill="#7D117D"/>
</svg>