<svg xmlns="http://www.w3.org/2000/svg" width="46" height="50" viewBox="0 0 46 50" fill="none">
  <ellipse cx="25.6235" cy="7.55687" rx="10.1313" ry="7.09203" fill="#7D117D"/>
  <path d="M22.8247 17.0677C24.3949 15.694 24.6294 15.2253 24.6294 14.5224L22.5205 14.2881C23.7026 15.3411 19.7907 19.722 22.8247 17.0677Z" fill="#7D117D"/>
  <path d="M10.4285 31.5349C13.9407 31.8051 14.1434 35.9252 13.1302 36.263C12.1169 36.6007 12.1172 35.5875 9.7532 33.8989C7.59185 33.0884 7.72693 34.2366 8.06464 34.9121C9.64063 36.1504 13.5356 38.5594 16.5074 38.2892C20.2223 37.9515 21.9108 37.6138 23.5994 36.6006C25.2879 35.5875 27.3142 36.6006 26.3011 37.9515C25.2879 39.3024 16.5074 41.6664 13.468 40.6532L13.4675 40.6531C10.4286 39.6401 10.4284 39.64 7.72693 37.6138C5.29541 36.8033 5.58809 38.4018 6.03838 39.3024C7.16408 40.0904 10.4285 40.991 10.4285 42.6795C10.4285 44.3681 9.0781 48.7584 9.41549 49.0961C9.75288 49.4338 0.972711 49.0961 0.297156 49.0961C-0.378399 49.0961 1.31042 40.991 1.98571 39.6401C2.66101 38.2893 6.9163 31.2648 10.4285 31.5349Z" fill="#7D117D"/>
  <ellipse cx="14.1456" cy="24.7824" rx="5.40338" ry="5.40345" fill="#7D117D"/>
  <ellipse cx="35.0831" cy="24.1066" rx="5.40338" ry="5.40345" fill="#7D117D"/>
  <path d="M28.6688 30.5221C26.5075 30.7923 24.6163 34.5747 25.2917 34.5747C25.9671 34.5747 26.6426 34.9123 26.9803 35.25C27.318 35.5878 27.7379 38.2895 26.3048 38.9649C24.8718 39.6403 24.954 39.9781 24.954 40.6535C24.954 41.3289 25.6294 44.0306 27.318 46.3947C29.0065 48.7587 32.0459 47.7455 30.6951 46.7324C29.6144 45.9219 28.4437 42.7924 27.9934 41.3289C27.9934 41.3289 27.318 35.5878 27.9934 34.5747C28.5337 33.7642 29.3442 34.237 29.682 34.5747V39.9781C29.682 42.0044 29.682 46.3947 32.3836 46.3947C35.0853 46.3947 38.7999 47.6759 40.151 44.9729C40.8262 43.2843 40.151 36.2632 40.151 35.25C40.151 34.2369 41.1641 34.2369 41.8396 34.9123C42.515 35.5878 42.1771 38.2895 42.1771 39.9781C42.1771 43.0175 41.1639 47.0701 37.787 47.7455C36.7396 47.955 34.0722 48.0832 32.3836 48.0832C31.0328 48.6236 31.8208 49.4341 32.3836 49.7718C35.7605 49.4341 38.1245 50.1095 40.151 49.0964C43.1715 47.5863 43.8656 44.3684 44.5413 42.0044C45.1058 40.0292 45.2167 36.9386 45.2167 34.5747C45.2167 32.2107 43.1904 30.5221 42.1773 30.1843C41.3668 29.9142 39.8133 30.0718 39.1379 30.1843C38.575 30.4095 37.3818 30.9273 37.1116 31.1975C36.7739 31.5352 34.4099 31.8729 33.0591 31.1975L31.7082 30.5221C31.5957 30.4095 30.8302 30.2519 28.6688 30.5221Z" fill="#7D117D"/>
</svg>