<svg xmlns="http://www.w3.org/2000/svg" width="50" height="50" viewBox="0 0 50 50" fill="none">
  <g clip-path="url(#clip0_2037_3237)">
    <path d="M33.8672 3.68359H15.4922C13.8677 3.68359 12.3098 4.3289 11.1612 5.47756C10.0125 6.62622 9.36719 8.18414 9.36719 9.80859V40.4336C9.36719 42.058 10.0125 43.616 11.1612 44.7646C12.3098 45.9133 13.8677 46.5586 15.4922 46.5586H22.4043C21.6242 45.614 20.9495 44.5871 20.3922 43.4961H15.4922C14.68 43.4961 13.901 43.1734 13.3267 42.5991C12.7523 42.0248 12.4297 41.2458 12.4297 40.4336V40.4244H19.1856C18.3683 37.5396 18.3359 34.489 19.0917 31.5876C19.8474 28.6861 21.364 26.0389 23.4847 23.9195C25.6054 21.8 28.2535 20.285 31.1554 19.5309C34.0573 18.7769 37.1079 18.8111 39.9922 19.63V9.80859C39.9922 8.18414 39.3469 6.62622 38.1982 5.47756C37.0496 4.3289 35.4916 3.68359 33.8672 3.68359ZM15.4922 11.3398H33.8672C34.2733 11.3398 34.6628 11.5012 34.9499 11.7883C35.2371 12.0755 35.3984 12.465 35.3984 12.8711V15.9336C35.3984 16.3397 35.2371 16.7292 34.9499 17.0164C34.6628 17.3035 34.2733 17.4648 33.8672 17.4648H15.4922C15.0861 17.4648 14.6966 17.3035 14.4094 17.0164C14.1223 16.7292 13.9609 16.3397 13.9609 15.9336V12.8711C13.9609 12.465 14.1223 12.0755 14.4094 11.7883C14.6966 11.5012 15.0861 11.3398 15.4922 11.3398ZM49.1797 35.8398C49.1797 39.4949 47.7277 43.0002 45.1433 45.5847C42.5588 48.1691 39.0535 49.6211 35.3984 49.6211C31.7434 49.6211 28.2381 48.1691 25.6536 45.5847C23.0691 43.0002 21.6172 39.4949 21.6172 35.8398C21.6172 32.1848 23.0691 28.6795 25.6536 26.095C28.2381 23.5105 31.7434 22.0586 35.3984 22.0586C39.0535 22.0586 42.5588 23.5105 45.1433 26.095C47.7277 28.6795 49.1797 32.1848 49.1797 35.8398ZM30.8047 40.4183C30.8046 40.6892 30.8765 40.9553 31.0128 41.1894C31.1492 41.4235 31.3453 41.6172 31.581 41.7508C31.8167 41.8844 32.0836 41.953 32.3545 41.9497C32.6254 41.9465 32.8906 41.8713 33.123 41.7321L40.7792 37.1475C41.0063 37.0116 41.1943 36.8191 41.3248 36.5888C41.4554 36.3586 41.524 36.0984 41.524 35.8337C41.524 35.569 41.4554 35.3089 41.3248 35.0786C41.1943 34.8484 41.0063 34.6559 40.7792 34.5199L33.123 29.9353C32.8908 29.7962 32.6259 29.7211 32.3553 29.7177C32.0846 29.7143 31.8179 29.7827 31.5823 29.9159C31.3467 30.0491 31.1506 30.2424 31.014 30.4761C30.8774 30.7097 30.8052 30.9754 30.8047 31.2461V40.4183Z" fill="#7D117D"/>
  </g>
  <defs>
    <clipPath id="clip0_2037_3237">
      <rect width="49" height="49" fill="white" transform="translate(0.179688 0.621094)"/>
    </clipPath>
  </defs>
</svg>