<svg width="159" height="515" viewBox="0 0 159 515" fill="none" xmlns="http://www.w3.org/2000/svg">
<path style="mix-blend-mode:screen" opacity="0.37" d="M133.073 150.077C133.975 149.793 134.751 149.302 135.303 148.666C135.855 148.031 136.158 147.279 136.174 146.507C136.189 145.735 135.917 144.978 135.39 144.33C134.864 143.682 134.107 143.174 133.217 142.87C132.326 142.566 131.342 142.48 130.389 142.622C129.436 142.764 128.557 143.128 127.863 143.669C127.169 144.209 126.692 144.901 126.492 145.657C126.293 146.413 126.379 147.199 126.741 147.914C127.223 148.868 128.159 149.63 129.345 150.035C130.531 150.44 131.871 150.455 133.073 150.077Z" fill="url(#paint0_radial_2125_3540)" fill-opacity="0.7"/>
<path style="mix-blend-mode:screen" opacity="0.72" d="M107.598 349.974C108.901 349.562 110.021 348.853 110.819 347.935C111.617 347.017 112.055 345.932 112.079 344.817C112.103 343.701 111.712 342.606 110.955 341.669C110.197 340.732 109.107 339.996 107.823 339.553C106.539 339.109 105.118 338.98 103.74 339.179C102.362 339.379 101.088 339.9 100.08 340.675C99.0717 341.451 98.3742 342.447 98.0753 343.537C97.7765 344.627 97.8898 345.762 98.401 346.8C98.7412 347.49 99.2491 348.12 99.8957 348.653C100.542 349.187 101.315 349.613 102.169 349.908C103.024 350.203 103.943 350.36 104.874 350.372C105.806 350.383 106.732 350.248 107.598 349.974Z" fill="url(#paint1_radial_2125_3540)" fill-opacity="0.7"/>
<path style="mix-blend-mode:screen" opacity="0.49" d="M119.187 384.61C120.23 384.273 121.124 383.697 121.757 382.956C122.39 382.215 122.733 381.341 122.743 380.445C122.753 379.55 122.43 378.672 121.813 377.924C121.197 377.175 120.315 376.59 119.28 376.241C118.245 375.892 117.103 375.796 115.998 375.964C114.893 376.132 113.875 376.558 113.072 377.186C112.269 377.815 111.718 378.619 111.488 379.496C111.258 380.373 111.36 381.284 111.78 382.115C112.347 383.227 113.445 384.114 114.833 384.582C116.221 385.05 117.787 385.06 119.187 384.61Z" fill="url(#paint2_radial_2125_3540)" fill-opacity="0.7"/>
<path style="mix-blend-mode:screen" opacity="0.4" d="M137.447 507.712C141.803 506.307 145.54 503.905 148.186 500.81C150.833 497.716 152.269 494.068 152.314 490.327C152.359 486.586 151.01 482.921 148.438 479.795C145.866 476.669 142.187 474.222 137.865 472.763C133.543 471.305 128.773 470.901 124.158 471.602C119.543 472.303 115.289 474.077 111.936 476.701C108.582 479.326 106.279 482.681 105.317 486.344C104.355 490.007 104.778 493.813 106.533 497.28C107.698 499.584 109.422 501.681 111.606 503.452C113.791 505.223 116.393 506.633 119.264 507.602C122.135 508.57 125.218 509.079 128.338 509.098C131.458 509.117 134.553 508.646 137.447 507.712Z" fill="url(#paint3_radial_2125_3540)" fill-opacity="0.7"/>
<path style="mix-blend-mode:screen" d="M32.6006 308.944C35.6257 307.969 38.2216 306.302 40.0601 304.154C41.8986 302.006 42.8971 299.473 42.9293 296.876C42.9616 294.278 42.0261 291.733 40.2412 289.562C38.4564 287.391 35.9023 285.691 32.9019 284.678C29.9015 283.664 26.5895 283.383 23.3847 283.869C20.18 284.355 17.2264 285.587 14.8974 287.409C12.5684 289.23 10.9686 291.56 10.3003 294.103C9.63196 296.647 9.9251 299.289 11.1427 301.697C11.9514 303.296 13.1479 304.752 14.664 305.981C16.18 307.211 17.986 308.19 19.9786 308.863C21.9712 309.536 24.1114 309.889 26.2771 309.903C28.4428 309.917 30.5915 309.591 32.6006 308.944Z" fill="url(#paint4_radial_2125_3540)" fill-opacity="0.7"/>
<path style="mix-blend-mode:screen" opacity="0.48" d="M100.934 281.014C101.97 280.679 102.858 280.107 103.486 279.37C104.114 278.634 104.455 277.766 104.464 276.876C104.474 275.986 104.152 275.115 103.539 274.372C102.927 273.629 102.051 273.047 101.023 272.701C99.9944 272.355 98.8598 272.26 97.7623 272.427C96.6648 272.595 95.6535 273.017 94.8565 273.642C94.0595 274.267 93.5125 275.065 93.2846 275.936C93.0566 276.808 93.158 277.713 93.5758 278.537C93.8536 279.085 94.2642 279.584 94.7844 280.005C95.3046 280.426 95.9241 280.761 96.6075 280.991C97.2908 281.221 98.0247 281.341 98.7671 281.345C99.5095 281.349 100.246 281.237 100.934 281.014Z" fill="url(#paint5_radial_2125_3540)" fill-opacity="0.7"/>
<path style="mix-blend-mode:screen" opacity="0.48" d="M91.9075 26.6973C94.5785 25.8325 96.8689 24.357 98.4897 22.4572C100.11 20.5574 100.989 18.3183 101.013 16.0235C101.038 13.7287 100.207 11.4811 98.6273 9.56448C97.0472 7.64782 94.7883 6.14814 92.136 5.25538C89.4837 4.36262 86.5572 4.11661 83.7263 4.54853C80.8954 4.98045 78.287 6.07099 76.2312 7.68207C74.1754 9.29315 72.7645 11.3525 72.1765 13.5999C71.5885 15.8474 71.85 18.1821 72.9278 20.3088C73.6441 21.7221 74.7033 23.0084 76.045 24.0945C77.3868 25.1806 78.9848 26.045 80.7475 26.6384C82.5102 27.2317 84.4032 27.5422 86.3181 27.5523C88.233 27.5623 90.1323 27.272 91.9075 26.6973Z" fill="url(#paint6_radial_2125_3540)" fill-opacity="0.7"/>
<defs>
<radialGradient id="paint0_radial_2125_3540" cx="0" cy="0" r="1" gradientUnits="userSpaceOnUse" gradientTransform="translate(130.34 148.646) rotate(-18.0147) scale(4.77571 4.00799)">
<stop offset="0.2" stop-color="#F2D0EF"/>
<stop offset="0.21" stop-color="#E400E4"/>
<stop offset="0.22" stop-color="#8C008C"/>
<stop offset="0.23" stop-color="#510151"/>
<stop offset="0.25" stop-color="#3F023F"/>
<stop offset="0.38" stop-color="#400240"/>
<stop offset="0.5" stop-color="#2B012B"/>
<stop offset="0.63" stop-color="#200120"/>
<stop offset="0.75" stop-color="#000710"/>
<stop offset="0.88" stop-color="#000204"/>
<stop offset="1"/>
</radialGradient>
<radialGradient id="paint1_radial_2125_3540" cx="0" cy="0" r="1" gradientUnits="userSpaceOnUse" gradientTransform="translate(103.634 347.905) rotate(-18.0147) scale(6.91356 5.80218)">
<stop offset="0.2" stop-color="#F2D0EF"/>
<stop offset="0.21" stop-color="#E400E4"/>
<stop offset="0.22" stop-color="#8C008C"/>
<stop offset="0.23" stop-color="#510151"/>
<stop offset="0.25" stop-color="#3F023F"/>
<stop offset="0.38" stop-color="#400240"/>
<stop offset="0.5" stop-color="#2B012B"/>
<stop offset="0.63" stop-color="#200120"/>
<stop offset="0.75" stop-color="#000710"/>
<stop offset="0.88" stop-color="#000204"/>
<stop offset="1"/>
</radialGradient>
<radialGradient id="paint2_radial_2125_3540" cx="0" cy="0" r="1" gradientUnits="userSpaceOnUse" gradientTransform="translate(115.962 382.962) rotate(-18.0146) scale(5.55079 4.65824)">
<stop offset="0.2" stop-color="#F2D0EF"/>
<stop offset="0.21" stop-color="#E400E4"/>
<stop offset="0.22" stop-color="#8C008C"/>
<stop offset="0.23" stop-color="#510151"/>
<stop offset="0.25" stop-color="#3F023F"/>
<stop offset="0.38" stop-color="#400240"/>
<stop offset="0.5" stop-color="#2B012B"/>
<stop offset="0.63" stop-color="#200120"/>
<stop offset="0.75" stop-color="#000710"/>
<stop offset="0.88" stop-color="#000204"/>
<stop offset="1"/>
</radialGradient>
<radialGradient id="paint3_radial_2125_3540" cx="0" cy="0" r="1" gradientUnits="userSpaceOnUse" gradientTransform="translate(123.997 500.827) rotate(-18.0147) scale(23.1785 19.4525)">
<stop offset="0.2" stop-color="#F2D0EF"/>
<stop offset="0.21" stop-color="#E400E4"/>
<stop offset="0.22" stop-color="#8C008C"/>
<stop offset="0.23" stop-color="#510151"/>
<stop offset="0.25" stop-color="#3F023F"/>
<stop offset="0.38" stop-color="#400240"/>
<stop offset="0.5" stop-color="#2B012B"/>
<stop offset="0.63" stop-color="#200120"/>
<stop offset="0.75" stop-color="#000710"/>
<stop offset="0.88" stop-color="#000204"/>
<stop offset="1"/>
</radialGradient>
<radialGradient id="paint4_radial_2125_3540" cx="0" cy="0" r="1" gradientUnits="userSpaceOnUse" gradientTransform="translate(23.269 304.161) rotate(-18.0147) scale(16.0928 13.5058)">
<stop offset="0.2" stop-color="#F2D0EF"/>
<stop offset="0.21" stop-color="#E400E4"/>
<stop offset="0.22" stop-color="#8C008C"/>
<stop offset="0.23" stop-color="#510151"/>
<stop offset="0.25" stop-color="#3F023F"/>
<stop offset="0.38" stop-color="#400240"/>
<stop offset="0.5" stop-color="#2B012B"/>
<stop offset="0.63" stop-color="#200120"/>
<stop offset="0.75" stop-color="#000710"/>
<stop offset="0.88" stop-color="#000204"/>
<stop offset="1"/>
</radialGradient>
<radialGradient id="paint5_radial_2125_3540" cx="0" cy="0" r="1" gradientUnits="userSpaceOnUse" gradientTransform="translate(97.7286 279.378) rotate(-18.0148) scale(5.51332 4.62709)">
<stop offset="0.2" stop-color="#F2D0EF"/>
<stop offset="0.21" stop-color="#E400E4"/>
<stop offset="0.22" stop-color="#8C008C"/>
<stop offset="0.23" stop-color="#510151"/>
<stop offset="0.25" stop-color="#3F023F"/>
<stop offset="0.38" stop-color="#400240"/>
<stop offset="0.5" stop-color="#2B012B"/>
<stop offset="0.63" stop-color="#200120"/>
<stop offset="0.75" stop-color="#000710"/>
<stop offset="0.88" stop-color="#000204"/>
<stop offset="1"/>
</radialGradient>
<radialGradient id="paint6_radial_2125_3540" cx="0" cy="0" r="1" gradientUnits="userSpaceOnUse" gradientTransform="translate(83.6395 22.4777) rotate(-18.0148) scale(14.221 11.935)">
<stop offset="0.2" stop-color="#F2D0EF"/>
<stop offset="0.21" stop-color="#E400E4"/>
<stop offset="0.22" stop-color="#8C008C"/>
<stop offset="0.23" stop-color="#510151"/>
<stop offset="0.25" stop-color="#3F023F"/>
<stop offset="0.38" stop-color="#400240"/>
<stop offset="0.5" stop-color="#2B012B"/>
<stop offset="0.63" stop-color="#200120"/>
<stop offset="0.75" stop-color="#000710"/>
<stop offset="0.88" stop-color="#000204"/>
<stop offset="1"/>
</radialGradient>
</defs>
</svg>
