<svg width="160" height="515" viewBox="0 0 160 515" fill="none" xmlns="http://www.w3.org/2000/svg">
<path style="mix-blend-mode:screen" opacity="0.37" d="M26.2789 150.077C25.3767 149.793 24.6004 149.302 24.0482 148.666C23.4961 148.031 23.1931 147.279 23.1776 146.507C23.1622 145.735 23.4349 144.978 23.9614 144.33C24.4879 143.682 25.2443 143.174 26.1347 142.87C27.0251 142.566 28.0094 142.48 28.9626 142.622C29.9158 142.764 30.795 143.128 31.4887 143.669C32.1825 144.209 32.6595 144.901 32.8592 145.657C33.0589 146.413 32.9723 147.199 32.6104 147.914C32.1284 148.868 31.1924 149.63 30.0064 150.035C28.8204 150.44 27.4806 150.455 26.2789 150.077Z" fill="url(#paint0_radial_2125_3532)" fill-opacity="0.5"/>
<path style="mix-blend-mode:screen" opacity="0.72" d="M51.7534 349.974C50.4508 349.562 49.3301 348.853 48.5325 347.935C47.7349 347.017 47.2963 345.932 47.2722 344.817C47.2481 343.701 47.6395 342.606 48.3971 341.669C49.1546 340.732 50.2443 339.996 51.5283 339.553C52.8124 339.109 54.2333 338.98 55.6115 339.179C56.9897 339.379 58.2633 339.9 59.2716 340.675C60.2799 341.451 60.9774 342.447 61.2762 343.537C61.5751 344.627 61.4618 345.762 60.9505 346.8C60.6104 347.49 60.1025 348.12 59.4559 348.653C58.8093 349.187 58.0366 349.613 57.1823 349.908C56.328 350.203 55.4088 350.36 54.4773 350.372C53.5457 350.383 52.62 350.248 51.7534 349.974Z" fill="url(#paint1_radial_2125_3532)" fill-opacity="0.5"/>
<path style="mix-blend-mode:screen" opacity="0.49" d="M40.1647 384.61C39.1219 384.273 38.2275 383.697 37.5945 382.956C36.9614 382.215 36.6182 381.341 36.6082 380.445C36.5982 379.55 36.922 378.672 37.5384 377.924C38.1548 377.175 39.0361 376.59 40.0712 376.241C41.1063 375.892 42.2487 375.796 43.3537 375.964C44.4588 376.132 45.477 376.558 46.2797 377.186C47.0824 377.815 47.6336 378.619 47.8635 379.496C48.0935 380.373 47.9918 381.284 47.5715 382.115C47.0046 383.227 45.9068 384.114 44.5185 384.582C43.1301 385.05 41.5646 385.06 40.1647 384.61Z" fill="url(#paint2_radial_2125_3532)" fill-opacity="0.5"/>
<path style="mix-blend-mode:screen" opacity="0.4" d="M21.9049 507.712C17.5489 506.307 13.8114 503.905 11.1651 500.81C8.51885 497.716 7.08248 494.068 7.03771 490.327C6.99293 486.586 8.34179 482.921 10.9136 479.795C13.4854 476.669 17.1647 474.222 21.4865 472.763C25.8082 471.305 30.5784 470.901 35.1937 471.602C39.809 472.303 44.0623 474.077 47.4159 476.701C50.7694 479.326 53.0726 482.681 54.0343 486.344C54.9961 490.007 54.5732 493.813 52.819 497.28C51.6537 499.584 49.9296 501.681 47.7452 503.452C45.5607 505.223 42.9587 506.633 40.0879 507.602C37.217 508.57 34.1335 509.079 31.0136 509.098C27.8937 509.117 24.7985 508.646 21.9049 507.712Z" fill="url(#paint3_radial_2125_3532)" fill-opacity="0.5"/>
<path style="mix-blend-mode:screen" d="M126.751 308.944C123.726 307.969 121.13 306.302 119.292 304.154C117.453 302.006 116.454 299.473 116.422 296.876C116.39 294.278 117.325 291.733 119.11 289.562C120.895 287.391 123.449 285.691 126.45 284.678C129.45 283.664 132.762 283.383 135.967 283.869C139.172 284.355 142.125 285.587 144.454 287.409C146.783 289.23 148.383 291.56 149.051 294.103C149.72 296.647 149.426 299.289 148.209 301.697C147.4 303.296 146.204 304.752 144.688 305.981C143.172 307.211 141.366 308.19 139.373 308.863C137.38 309.536 135.24 309.889 133.074 309.903C130.909 309.917 128.76 309.591 126.751 308.944Z" fill="url(#paint4_radial_2125_3532)" fill-opacity="0.5"/>
<path style="mix-blend-mode:screen" opacity="0.48" d="M58.4175 281.014C57.382 280.679 56.494 280.107 55.8657 279.37C55.2373 278.634 54.8968 277.766 54.8873 276.876C54.8778 275.986 55.1997 275.115 55.8123 274.372C56.4249 273.629 57.3007 273.047 58.3289 272.701C59.3572 272.355 60.4918 272.26 61.5893 272.427C62.6868 272.595 63.698 273.017 64.495 273.642C65.292 274.267 65.839 275.065 66.067 275.936C66.295 276.808 66.1936 277.713 65.7757 278.537C65.498 279.085 65.0874 279.584 64.5672 280.005C64.047 280.426 63.4275 280.761 62.7441 280.991C62.0607 281.221 61.3268 281.341 60.5844 281.345C59.8421 281.349 59.1057 281.237 58.4175 281.014Z" fill="url(#paint5_radial_2125_3532)" fill-opacity="0.5"/>
<path style="mix-blend-mode:screen" opacity="0.48" d="M67.4441 26.6973C64.7731 25.8325 62.4827 24.357 60.8619 22.4572C59.2411 20.5574 58.3627 18.3183 58.3382 16.0235C58.3138 13.7287 59.1442 11.4811 60.7243 9.56448C62.3044 7.64782 64.5633 6.14814 67.2156 5.25538C69.8679 4.36262 72.7944 4.11661 75.6253 4.54853C78.4562 4.98045 81.0646 6.07099 83.1203 7.68207C85.1761 9.29315 86.587 11.3525 87.1751 13.5999C87.7631 15.8474 87.5016 18.1821 86.4238 20.3088C85.7074 21.7221 84.6483 23.0084 83.3065 24.0945C81.9647 25.1806 80.3667 26.045 78.6041 26.6384C76.8414 27.2317 74.9483 27.5422 73.0335 27.5523C71.1186 27.5623 69.2192 27.272 67.4441 26.6973Z" fill="url(#paint6_radial_2125_3532)" fill-opacity="0.5"/>
<defs>
<radialGradient id="paint0_radial_2125_3532" cx="0" cy="0" r="1" gradientUnits="userSpaceOnUse" gradientTransform="translate(29.0116 148.646) rotate(-161.985) scale(4.77571 4.00799)">
<stop offset="0.2" stop-color="#F2D0EF"/>
<stop offset="0.21" stop-color="#E400E4"/>
<stop offset="0.22" stop-color="#8C008C"/>
<stop offset="0.23" stop-color="#510151"/>
<stop offset="0.25" stop-color="#3F023F"/>
<stop offset="0.38" stop-color="#400240"/>
<stop offset="0.5" stop-color="#2B012B"/>
<stop offset="0.63" stop-color="#200120"/>
<stop offset="0.75" stop-color="#000710"/>
<stop offset="0.88" stop-color="#000204"/>
<stop offset="1"/>
</radialGradient>
<radialGradient id="paint1_radial_2125_3532" cx="0" cy="0" r="1" gradientUnits="userSpaceOnUse" gradientTransform="translate(55.7177 347.905) rotate(-161.985) scale(6.91356 5.80218)">
<stop offset="0.2" stop-color="#F2D0EF"/>
<stop offset="0.21" stop-color="#E400E4"/>
<stop offset="0.22" stop-color="#8C008C"/>
<stop offset="0.23" stop-color="#510151"/>
<stop offset="0.25" stop-color="#3F023F"/>
<stop offset="0.38" stop-color="#400240"/>
<stop offset="0.5" stop-color="#2B012B"/>
<stop offset="0.63" stop-color="#200120"/>
<stop offset="0.75" stop-color="#000710"/>
<stop offset="0.88" stop-color="#000204"/>
<stop offset="1"/>
</radialGradient>
<radialGradient id="paint2_radial_2125_3532" cx="0" cy="0" r="1" gradientUnits="userSpaceOnUse" gradientTransform="translate(43.3898 382.962) rotate(-161.985) scale(5.55079 4.65824)">
<stop offset="0.2" stop-color="#F2D0EF"/>
<stop offset="0.21" stop-color="#E400E4"/>
<stop offset="0.22" stop-color="#8C008C"/>
<stop offset="0.23" stop-color="#510151"/>
<stop offset="0.25" stop-color="#3F023F"/>
<stop offset="0.38" stop-color="#400240"/>
<stop offset="0.5" stop-color="#2B012B"/>
<stop offset="0.63" stop-color="#200120"/>
<stop offset="0.75" stop-color="#000710"/>
<stop offset="0.88" stop-color="#000204"/>
<stop offset="1"/>
</radialGradient>
<radialGradient id="paint3_radial_2125_3532" cx="0" cy="0" r="1" gradientUnits="userSpaceOnUse" gradientTransform="translate(35.3546 500.827) rotate(-161.985) scale(23.1785 19.4525)">
<stop offset="0.2" stop-color="#F2D0EF"/>
<stop offset="0.21" stop-color="#E400E4"/>
<stop offset="0.22" stop-color="#8C008C"/>
<stop offset="0.23" stop-color="#510151"/>
<stop offset="0.25" stop-color="#3F023F"/>
<stop offset="0.38" stop-color="#400240"/>
<stop offset="0.5" stop-color="#2B012B"/>
<stop offset="0.63" stop-color="#200120"/>
<stop offset="0.75" stop-color="#000710"/>
<stop offset="0.88" stop-color="#000204"/>
<stop offset="1"/>
</radialGradient>
<radialGradient id="paint4_radial_2125_3532" cx="0" cy="0" r="1" gradientUnits="userSpaceOnUse" gradientTransform="translate(136.083 304.161) rotate(-161.985) scale(16.0928 13.5058)">
<stop offset="0.2" stop-color="#F2D0EF"/>
<stop offset="0.21" stop-color="#E400E4"/>
<stop offset="0.22" stop-color="#8C008C"/>
<stop offset="0.23" stop-color="#510151"/>
<stop offset="0.25" stop-color="#3F023F"/>
<stop offset="0.38" stop-color="#400240"/>
<stop offset="0.5" stop-color="#2B012B"/>
<stop offset="0.63" stop-color="#200120"/>
<stop offset="0.75" stop-color="#000710"/>
<stop offset="0.88" stop-color="#000204"/>
<stop offset="1"/>
</radialGradient>
<radialGradient id="paint5_radial_2125_3532" cx="0" cy="0" r="1" gradientUnits="userSpaceOnUse" gradientTransform="translate(61.6229 279.378) rotate(-161.985) scale(5.51332 4.62709)">
<stop offset="0.2" stop-color="#F2D0EF"/>
<stop offset="0.21" stop-color="#E400E4"/>
<stop offset="0.22" stop-color="#8C008C"/>
<stop offset="0.23" stop-color="#510151"/>
<stop offset="0.25" stop-color="#3F023F"/>
<stop offset="0.38" stop-color="#400240"/>
<stop offset="0.5" stop-color="#2B012B"/>
<stop offset="0.63" stop-color="#200120"/>
<stop offset="0.75" stop-color="#000710"/>
<stop offset="0.88" stop-color="#000204"/>
<stop offset="1"/>
</radialGradient>
<radialGradient id="paint6_radial_2125_3532" cx="0" cy="0" r="1" gradientUnits="userSpaceOnUse" gradientTransform="translate(75.7121 22.4777) rotate(-161.985) scale(14.221 11.935)">
<stop offset="0.2" stop-color="#F2D0EF"/>
<stop offset="0.21" stop-color="#E400E4"/>
<stop offset="0.22" stop-color="#8C008C"/>
<stop offset="0.23" stop-color="#510151"/>
<stop offset="0.25" stop-color="#3F023F"/>
<stop offset="0.38" stop-color="#400240"/>
<stop offset="0.5" stop-color="#2B012B"/>
<stop offset="0.63" stop-color="#200120"/>
<stop offset="0.75" stop-color="#000710"/>
<stop offset="0.88" stop-color="#000204"/>
<stop offset="1"/>
</radialGradient>
</defs>
</svg>
