<svg width="784" height="681" viewBox="0 0 784 681" fill="none" xmlns="http://www.w3.org/2000/svg">
<path style="mix-blend-mode:screen" d="M372.715 680.571L0.357344 498.275L0.357344 18.3573L742.643 18.3573L742.643 498.275L372.715 680.571Z" fill="url(#paint0_linear_2037_2878)" fill-opacity="0.1" stroke="url(#paint1_linear_2037_2878)" stroke-width="0.714687"/>
<path style="mix-blend-mode:screen" d="M371.568 545.209L205.25 463.79L205.25 20.9688L536.804 20.9687V463.79L371.568 545.209Z" fill="url(#paint2_linear_2037_2878)" fill-opacity="0.1" stroke="url(#paint3_linear_2037_2878)" stroke-width="0.5"/>
<path style="mix-blend-mode:screen" d="M372.344 628.119L104.5 496.973L104.5 151.832L638.453 151.832V496.991L372.344 628.119Z" fill="url(#paint4_linear_2037_2878)" fill-opacity="0.1" stroke="url(#paint5_linear_2037_2878)"/>
<path style="mix-blend-mode:screen" opacity="0.72" d="M705.127 252.454C705.34 251.77 705.71 251.181 706.19 250.761C706.669 250.34 707.238 250.108 707.822 250.093C708.407 250.078 708.982 250.281 709.475 250.676C709.968 251.071 710.357 251.641 710.592 252.313C710.827 252.986 710.898 253.731 710.797 254.454C710.695 255.177 710.424 255.846 710.02 256.377C709.615 256.907 709.095 257.275 708.524 257.434C707.953 257.593 707.357 257.536 706.812 257.27C706.449 257.093 706.118 256.828 705.837 256.49C705.556 256.152 705.33 255.748 705.174 255.301C705.017 254.853 704.933 254.372 704.925 253.883C704.917 253.395 704.986 252.909 705.127 252.454Z" fill="url(#paint6_radial_2037_2878)" fill-opacity="0.7"/>
<path style="mix-blend-mode:screen" opacity="0.49" d="M686.934 246.451C687.109 245.904 687.409 245.434 687.796 245.1C688.183 244.766 688.641 244.585 689.111 244.577C689.58 244.57 690.041 244.738 690.435 245.06C690.829 245.381 691.138 245.842 691.323 246.384C691.508 246.926 691.561 247.525 691.475 248.105C691.389 248.685 691.169 249.22 690.841 249.642C690.513 250.064 690.092 250.355 689.633 250.478C689.173 250.6 688.695 250.549 688.259 250.33C687.674 250.035 687.207 249.462 686.958 248.735C686.71 248.007 686.701 247.187 686.934 246.451Z" fill="url(#paint7_radial_2037_2878)" fill-opacity="0.7"/>
<path style="mix-blend-mode:screen" d="M622.345 237.143C623.073 234.856 624.324 232.89 625.941 231.496C627.558 230.102 629.468 229.34 631.43 229.309C633.392 229.277 635.316 229.977 636.961 231.319C638.606 232.661 639.898 234.585 640.672 236.848C641.446 239.111 641.668 241.612 641.311 244.034C640.953 246.455 640.032 248.69 638.663 250.454C637.294 252.218 635.539 253.433 633.62 253.946C631.702 254.458 629.705 254.244 627.883 253.332C626.672 252.726 625.569 251.826 624.635 250.685C623.702 249.543 622.957 248.181 622.443 246.678C621.928 245.175 621.655 243.559 621.638 241.923C621.622 240.287 621.862 238.662 622.345 237.143Z" fill="url(#paint8_radial_2037_2878)" fill-opacity="0.7"/>
<path style="mix-blend-mode:screen" opacity="0.7" d="M764.136 83.375C764.891 80.9988 766.19 78.9571 767.869 77.5079C769.548 76.0588 771.532 75.2673 773.569 75.2335C775.607 75.1998 777.606 75.9254 779.315 77.3185C781.024 78.7116 782.366 80.7097 783.17 83.0601C783.975 85.4105 784.206 88.0076 783.835 90.5232C783.464 93.0387 782.508 95.3597 781.086 97.1926C779.665 99.0255 777.842 100.288 775.85 100.82C773.857 101.353 771.783 101.132 769.89 100.184C768.633 99.555 767.487 98.6211 766.518 97.4358C765.548 96.2505 764.774 94.837 764.24 93.2761C763.706 91.7152 763.421 90.0374 763.404 88.3386C763.386 86.6397 763.635 84.9531 764.136 83.375Z" fill="url(#paint9_radial_2037_2878)" fill-opacity="0.7"/>
<path style="mix-blend-mode:screen" opacity="0.48" d="M779.252 58.6473C779.426 58.1035 779.724 57.6366 780.109 57.3055C780.493 56.9744 780.948 56.7939 781.414 56.787C781.881 56.7801 782.339 56.9471 782.73 57.2667C783.121 57.5863 783.427 58.0443 783.611 58.5828C783.795 59.1213 783.847 59.7161 783.762 60.292C783.676 60.8679 783.457 61.3991 783.131 61.8184C782.805 62.2377 782.388 62.5263 781.931 62.6477C781.475 62.7691 781 62.7179 780.567 62.5006C780.279 62.3561 780.016 62.1419 779.795 61.87C779.573 61.5981 779.396 61.274 779.273 60.9161C779.151 60.5582 779.087 60.1736 779.083 59.7843C779.079 59.395 779.137 59.0086 779.252 58.6473Z" fill="url(#paint10_radial_2037_2878)" fill-opacity="0.7"/>
<path style="mix-blend-mode:screen" d="M122.697 250.436C124.209 251.629 125.332 253.124 125.923 254.732C126.514 256.341 126.547 257.991 126.017 259.473C125.487 260.955 124.418 262.204 122.946 263.061C121.473 263.917 119.663 264.344 117.745 264.286C115.826 264.228 113.885 263.689 112.167 262.736C110.449 261.783 109.031 260.46 108.092 258.933C107.154 257.407 106.737 255.745 106.894 254.159C107.051 252.573 107.776 251.134 108.976 250.023C109.773 249.285 110.76 248.711 111.881 248.332C113.002 247.954 114.234 247.779 115.509 247.817C116.783 247.855 118.073 248.106 119.307 248.556C120.54 249.005 121.692 249.644 122.697 250.436Z" fill="url(#paint11_radial_2037_2878)" fill-opacity="0.7"/>
<path style="mix-blend-mode:screen" opacity="0.48" d="M146.004 280.115C146.451 280.469 146.783 280.912 146.958 281.389C147.132 281.866 147.141 282.355 146.983 282.794C146.825 283.233 146.508 283.602 146.071 283.856C145.634 284.109 145.097 284.235 144.529 284.217C143.96 284.199 143.385 284.039 142.876 283.756C142.367 283.473 141.947 283.081 141.67 282.628C141.392 282.176 141.269 281.683 141.316 281.213C141.363 280.743 141.578 280.317 141.934 279.988C142.171 279.769 142.464 279.599 142.796 279.487C143.129 279.375 143.495 279.324 143.873 279.336C144.251 279.347 144.633 279.422 144.999 279.556C145.365 279.69 145.706 279.879 146.004 280.115Z" fill="url(#paint12_radial_2037_2878)" fill-opacity="0.7"/>
<path style="mix-blend-mode:screen" opacity="0.37" d="M497.102 605.53C497.355 606.483 497.829 607.314 498.465 607.919C499.101 608.524 499.869 608.875 500.672 608.927C501.475 608.98 502.277 608.732 502.976 608.214C503.675 607.697 504.239 606.933 504.598 606.02C504.957 605.108 505.093 604.087 504.99 603.088C504.887 602.089 504.549 601.156 504.019 600.408C503.489 599.66 502.791 599.131 502.014 598.888C501.236 598.644 500.414 598.697 499.652 599.04C498.636 599.497 497.799 600.436 497.321 601.651C496.843 602.867 496.765 604.261 497.102 605.53Z" fill="url(#paint13_radial_2037_2878)" fill-opacity="0.7"/>
<path style="mix-blend-mode:screen" opacity="0.72" d="M290.182 569.583C290.549 570.958 291.235 572.159 292.153 573.032C293.071 573.906 294.18 574.414 295.34 574.492C296.5 574.569 297.659 574.213 298.67 573.469C299.681 572.724 300.499 571.624 301.021 570.308C301.543 568.992 301.746 567.519 301.602 566.075C301.459 564.63 300.977 563.28 300.217 562.194C299.458 561.107 298.454 560.334 297.333 559.972C296.212 559.609 295.024 559.673 293.92 560.157C293.185 560.478 292.506 560.978 291.92 561.626C291.334 562.274 290.854 563.058 290.507 563.934C290.159 564.809 289.952 565.759 289.896 566.728C289.84 567.697 289.937 568.668 290.182 569.583Z" fill="url(#paint14_radial_2037_2878)" fill-opacity="0.7"/>
<path style="mix-blend-mode:screen" opacity="0.49" d="M253.581 580.015C253.883 581.117 254.44 582.075 255.182 582.769C255.924 583.463 256.817 583.861 257.749 583.914C258.682 583.967 259.61 583.671 260.419 583.065C261.227 582.458 261.878 581.568 262.29 580.507C262.702 579.446 262.856 578.261 262.733 577.102C262.61 575.944 262.215 574.864 261.598 573.998C260.982 573.133 260.171 572.521 259.269 572.24C258.366 571.96 257.413 572.023 256.528 572.421C255.343 572.959 254.368 574.06 253.815 575.483C253.263 576.907 253.178 578.536 253.581 580.015Z" fill="url(#paint15_radial_2037_2878)" fill-opacity="0.7"/>
<path style="mix-blend-mode:screen" opacity="0.4" d="M124.549 593.222C125.807 597.823 128.132 601.828 131.229 604.729C134.326 607.63 138.057 609.297 141.949 609.52C145.841 609.743 149.721 608.512 153.097 605.982C156.473 603.451 159.195 599.736 160.917 595.305C162.639 590.874 163.285 585.927 162.772 581.089C162.26 576.25 160.613 571.738 158.039 568.123C155.465 564.508 152.08 561.952 148.311 560.778C144.543 559.604 140.561 559.865 136.868 561.527C134.415 562.632 132.15 564.328 130.203 566.519C128.257 568.71 126.666 571.353 125.522 574.296C124.378 577.239 123.703 580.426 123.536 583.673C123.369 586.92 123.714 590.165 124.549 593.222Z" fill="url(#paint16_radial_2037_2878)" fill-opacity="0.7"/>
<path style="mix-blend-mode:screen" d="M336.444 493.44C337.316 496.635 338.929 499.416 341.079 501.432C343.229 503.447 345.819 504.606 348.521 504.762C351.224 504.918 353.918 504.064 356.263 502.308C358.607 500.552 360.497 497.973 361.694 494.897C362.89 491.821 363.339 488.386 362.984 485.027C362.629 481.667 361.486 478.534 359.699 476.023C357.912 473.512 355.562 471.737 352.946 470.921C350.329 470.106 347.564 470.286 345 471.44C343.297 472.207 341.725 473.384 340.373 474.905C339.022 476.425 337.917 478.259 337.122 480.302C336.328 482.345 335.859 484.556 335.743 486.811C335.626 489.065 335.864 491.317 336.444 493.44Z" fill="url(#paint17_radial_2037_2878)" fill-opacity="0.7"/>
<path style="mix-blend-mode:screen" opacity="0.48" d="M362.301 565.889C362.601 566.983 363.155 567.935 363.892 568.623C364.629 569.312 365.517 569.708 366.443 569.76C367.369 569.812 368.291 569.517 369.093 568.915C369.896 568.312 370.543 567.428 370.951 566.373C371.36 565.319 371.513 564.142 371.39 562.992C371.268 561.841 370.875 560.768 370.263 559.909C369.65 559.05 368.844 558.443 367.948 558.164C367.052 557.886 366.104 557.949 365.226 558.345C364.643 558.608 364.104 559.012 363.641 559.534C363.178 560.056 362.8 560.685 362.529 561.386C362.257 562.086 362.097 562.845 362.058 563.617C362.019 564.39 362.101 565.162 362.301 565.889Z" fill="url(#paint18_radial_2037_2878)" fill-opacity="0.7"/>
<path style="mix-blend-mode:screen" opacity="0.48" d="M627.506 568.492C628.281 571.314 629.709 573.768 631.61 575.545C633.512 577.322 635.802 578.342 638.19 578.476C640.578 578.61 642.957 577.851 645.027 576.296C647.097 574.742 648.765 572.46 649.82 569.741C650.874 567.022 651.268 563.986 650.952 561.019C650.636 558.051 649.623 555.284 648.043 553.068C646.462 550.851 644.385 549.285 642.073 548.567C639.761 547.849 637.317 548.011 635.052 549.033C633.547 549.712 632.158 550.754 630.964 552.1C629.77 553.446 628.795 555.069 628.094 556.876C627.393 558.683 626.98 560.639 626.88 562.633C626.779 564.626 626.992 566.617 627.506 568.492Z" fill="url(#paint19_radial_2037_2878)" fill-opacity="0.7"/>
<defs>
<linearGradient id="paint0_linear_2037_2878" x1="371.49" y1="584.544" x2="371.49" y2="-2.63656" gradientUnits="userSpaceOnUse">
<stop stop-color="#AB49E4"/>
<stop offset="1"/>
</linearGradient>
<linearGradient id="paint1_linear_2037_2878" x1="372.151" y1="690.459" x2="372.018" y2="-2.62386" gradientUnits="userSpaceOnUse">
<stop stop-color="#AB49E4"/>
<stop offset="0.358006"/>
</linearGradient>
<linearGradient id="paint2_linear_2037_2878" x1="371.017" y1="469.161" x2="371.017" y2="4.37931" gradientUnits="userSpaceOnUse">
<stop stop-color="#AB49E4"/>
<stop offset="1"/>
</linearGradient>
<linearGradient id="paint3_linear_2037_2878" x1="371.318" y1="552.999" x2="371.133" y2="4.39413" gradientUnits="userSpaceOnUse">
<stop stop-color="#AB49E4"/>
<stop offset="0.261759"/>
</linearGradient>
<linearGradient id="paint4_linear_2037_2878" x1="371.466" y1="559.246" x2="371.466" y2="136.483" gradientUnits="userSpaceOnUse">
<stop stop-color="#AB49E4"/>
<stop offset="1"/>
</linearGradient>
<linearGradient id="paint5_linear_2037_2878" x1="371.945" y1="635.509" x2="371.85" y2="136.483" gradientUnits="userSpaceOnUse">
<stop stop-color="#AB49E4"/>
<stop offset="0.261759"/>
</linearGradient>
<radialGradient id="paint6_radial_2037_2878" cx="0" cy="0" r="1" gradientUnits="userSpaceOnUse" gradientTransform="translate(706.221 254.528) rotate(-72.2218) scale(3.62554 3.04272)">
<stop offset="0.2" stop-color="#F2D0EF"/>
<stop offset="0.21" stop-color="#E400E4"/>
<stop offset="0.22" stop-color="#8C008C"/>
<stop offset="0.23" stop-color="#510151"/>
<stop offset="0.25" stop-color="#3F023F"/>
<stop offset="0.38" stop-color="#400240"/>
<stop offset="0.5" stop-color="#2B012B"/>
<stop offset="0.63" stop-color="#200120"/>
<stop offset="0.75" stop-color="#000710"/>
<stop offset="0.88" stop-color="#000204"/>
<stop offset="1"/>
</radialGradient>
<radialGradient id="paint7_radial_2037_2878" cx="0" cy="0" r="1" gradientUnits="userSpaceOnUse" gradientTransform="translate(687.805 248.139) rotate(-72.2219) scale(2.91089 2.44282)">
<stop offset="0.2" stop-color="#F2D0EF"/>
<stop offset="0.21" stop-color="#E400E4"/>
<stop offset="0.22" stop-color="#8C008C"/>
<stop offset="0.23" stop-color="#510151"/>
<stop offset="0.25" stop-color="#3F023F"/>
<stop offset="0.38" stop-color="#400240"/>
<stop offset="0.5" stop-color="#2B012B"/>
<stop offset="0.63" stop-color="#200120"/>
<stop offset="0.75" stop-color="#000710"/>
<stop offset="0.88" stop-color="#000204"/>
<stop offset="1"/>
</radialGradient>
<radialGradient id="paint8_radial_2037_2878" cx="0" cy="0" r="1" gradientUnits="userSpaceOnUse" gradientTransform="translate(625.985 244.181) rotate(-72.2218) scale(12.155 10.2011)">
<stop offset="0.2" stop-color="#F2D0EF"/>
<stop offset="0.21" stop-color="#E400E4"/>
<stop offset="0.22" stop-color="#8C008C"/>
<stop offset="0.23" stop-color="#510151"/>
<stop offset="0.25" stop-color="#3F023F"/>
<stop offset="0.38" stop-color="#400240"/>
<stop offset="0.5" stop-color="#2B012B"/>
<stop offset="0.63" stop-color="#200120"/>
<stop offset="0.75" stop-color="#000710"/>
<stop offset="0.88" stop-color="#000204"/>
<stop offset="1"/>
</radialGradient>
<radialGradient id="paint9_radial_2037_2878" cx="0" cy="0" r="1" gradientUnits="userSpaceOnUse" gradientTransform="translate(767.918 90.6797) rotate(-72.2218) scale(12.6241 10.5947)">
<stop offset="0.2" stop-color="#F2D0EF"/>
<stop offset="0.21" stop-color="#E400E4"/>
<stop offset="0.22" stop-color="#8C008C"/>
<stop offset="0.23" stop-color="#510151"/>
<stop offset="0.25" stop-color="#3F023F"/>
<stop offset="0.38" stop-color="#400240"/>
<stop offset="0.5" stop-color="#2B012B"/>
<stop offset="0.63" stop-color="#200120"/>
<stop offset="0.75" stop-color="#000710"/>
<stop offset="0.88" stop-color="#000204"/>
<stop offset="1"/>
</radialGradient>
<radialGradient id="paint10_radial_2037_2878" cx="0" cy="0" r="1" gradientUnits="userSpaceOnUse" gradientTransform="translate(780.117 60.3247) rotate(-72.2218) scale(2.89124 2.42649)">
<stop offset="0.2" stop-color="#F2D0EF"/>
<stop offset="0.21" stop-color="#E400E4"/>
<stop offset="0.22" stop-color="#8C008C"/>
<stop offset="0.23" stop-color="#510151"/>
<stop offset="0.25" stop-color="#3F023F"/>
<stop offset="0.38" stop-color="#400240"/>
<stop offset="0.5" stop-color="#2B012B"/>
<stop offset="0.63" stop-color="#200120"/>
<stop offset="0.75" stop-color="#000710"/>
<stop offset="0.88" stop-color="#000204"/>
<stop offset="1"/>
</radialGradient>
<radialGradient id="paint11_radial_2037_2878" cx="0" cy="0" r="1" gradientUnits="userSpaceOnUse" gradientTransform="translate(116.385 251.183) rotate(38.3999) scale(9.75373 8.18579)">
<stop offset="0.2" stop-color="#F2D0EF"/>
<stop offset="0.21" stop-color="#E400E4"/>
<stop offset="0.22" stop-color="#8C008C"/>
<stop offset="0.23" stop-color="#510151"/>
<stop offset="0.25" stop-color="#3F023F"/>
<stop offset="0.38" stop-color="#400240"/>
<stop offset="0.5" stop-color="#2B012B"/>
<stop offset="0.63" stop-color="#200120"/>
<stop offset="0.75" stop-color="#000710"/>
<stop offset="0.88" stop-color="#000204"/>
<stop offset="1"/>
</radialGradient>
<radialGradient id="paint12_radial_2037_2878" cx="0" cy="0" r="1" gradientUnits="userSpaceOnUse" gradientTransform="translate(144.129 280.333) rotate(38.3999) scale(2.89124 2.42649)">
<stop offset="0.2" stop-color="#F2D0EF"/>
<stop offset="0.21" stop-color="#E400E4"/>
<stop offset="0.22" stop-color="#8C008C"/>
<stop offset="0.23" stop-color="#510151"/>
<stop offset="0.25" stop-color="#3F023F"/>
<stop offset="0.38" stop-color="#400240"/>
<stop offset="0.5" stop-color="#2B012B"/>
<stop offset="0.63" stop-color="#200120"/>
<stop offset="0.75" stop-color="#000710"/>
<stop offset="0.88" stop-color="#000204"/>
<stop offset="1"/>
</radialGradient>
<radialGradient id="paint13_radial_2037_2878" cx="0" cy="0" r="1" gradientUnits="userSpaceOnUse" gradientTransform="translate(498.721 602.753) rotate(74.578) scale(4.97732 4.17719)">
<stop offset="0.2" stop-color="#F2D0EF"/>
<stop offset="0.21" stop-color="#E400E4"/>
<stop offset="0.22" stop-color="#8C008C"/>
<stop offset="0.23" stop-color="#510151"/>
<stop offset="0.25" stop-color="#3F023F"/>
<stop offset="0.38" stop-color="#400240"/>
<stop offset="0.5" stop-color="#2B012B"/>
<stop offset="0.63" stop-color="#200120"/>
<stop offset="0.75" stop-color="#000710"/>
<stop offset="0.88" stop-color="#000204"/>
<stop offset="1"/>
</radialGradient>
<radialGradient id="paint14_radial_2037_2878" cx="0" cy="0" r="1" gradientUnits="userSpaceOnUse" gradientTransform="translate(292.523 565.553) rotate(74.578) scale(7.20542 6.04712)">
<stop offset="0.2" stop-color="#F2D0EF"/>
<stop offset="0.21" stop-color="#E400E4"/>
<stop offset="0.22" stop-color="#8C008C"/>
<stop offset="0.23" stop-color="#510151"/>
<stop offset="0.25" stop-color="#3F023F"/>
<stop offset="0.38" stop-color="#400240"/>
<stop offset="0.5" stop-color="#2B012B"/>
<stop offset="0.63" stop-color="#200120"/>
<stop offset="0.75" stop-color="#000710"/>
<stop offset="0.88" stop-color="#000204"/>
<stop offset="1"/>
</radialGradient>
<radialGradient id="paint15_radial_2037_2878" cx="0" cy="0" r="1" gradientUnits="userSpaceOnUse" gradientTransform="translate(255.449 576.735) rotate(74.5781) scale(5.78511 4.85488)">
<stop offset="0.2" stop-color="#F2D0EF"/>
<stop offset="0.21" stop-color="#E400E4"/>
<stop offset="0.22" stop-color="#8C008C"/>
<stop offset="0.23" stop-color="#510151"/>
<stop offset="0.25" stop-color="#3F023F"/>
<stop offset="0.38" stop-color="#400240"/>
<stop offset="0.5" stop-color="#2B012B"/>
<stop offset="0.63" stop-color="#200120"/>
<stop offset="0.75" stop-color="#000710"/>
<stop offset="0.88" stop-color="#000204"/>
<stop offset="1"/>
</radialGradient>
<radialGradient id="paint16_radial_2037_2878" cx="0" cy="0" r="1" gradientUnits="userSpaceOnUse" gradientTransform="translate(132.352 579.543) rotate(74.578) scale(24.157 20.2736)">
<stop offset="0.2" stop-color="#F2D0EF"/>
<stop offset="0.21" stop-color="#E400E4"/>
<stop offset="0.22" stop-color="#8C008C"/>
<stop offset="0.23" stop-color="#510151"/>
<stop offset="0.25" stop-color="#3F023F"/>
<stop offset="0.38" stop-color="#400240"/>
<stop offset="0.5" stop-color="#2B012B"/>
<stop offset="0.63" stop-color="#200120"/>
<stop offset="0.75" stop-color="#000710"/>
<stop offset="0.88" stop-color="#000204"/>
<stop offset="1"/>
</radialGradient>
<radialGradient id="paint17_radial_2037_2878" cx="0" cy="0" r="1" gradientUnits="userSpaceOnUse" gradientTransform="translate(341.863 483.949) rotate(74.578) scale(16.7721 14.076)">
<stop offset="0.2" stop-color="#F2D0EF"/>
<stop offset="0.21" stop-color="#E400E4"/>
<stop offset="0.22" stop-color="#8C008C"/>
<stop offset="0.23" stop-color="#510151"/>
<stop offset="0.25" stop-color="#3F023F"/>
<stop offset="0.38" stop-color="#400240"/>
<stop offset="0.5" stop-color="#2B012B"/>
<stop offset="0.63" stop-color="#200120"/>
<stop offset="0.75" stop-color="#000710"/>
<stop offset="0.88" stop-color="#000204"/>
<stop offset="1"/>
</radialGradient>
<radialGradient id="paint18_radial_2037_2878" cx="0" cy="0" r="1" gradientUnits="userSpaceOnUse" gradientTransform="translate(364.155 562.629) rotate(74.5779) scale(5.74607 4.82242)">
<stop offset="0.2" stop-color="#F2D0EF"/>
<stop offset="0.21" stop-color="#E400E4"/>
<stop offset="0.22" stop-color="#8C008C"/>
<stop offset="0.23" stop-color="#510151"/>
<stop offset="0.25" stop-color="#3F023F"/>
<stop offset="0.38" stop-color="#400240"/>
<stop offset="0.5" stop-color="#2B012B"/>
<stop offset="0.63" stop-color="#200120"/>
<stop offset="0.75" stop-color="#000710"/>
<stop offset="0.88" stop-color="#000204"/>
<stop offset="1"/>
</radialGradient>
<radialGradient id="paint19_radial_2037_2878" cx="0" cy="0" r="1" gradientUnits="userSpaceOnUse" gradientTransform="translate(632.289 560.083) rotate(74.5779) scale(14.8213 12.4389)">
<stop offset="0.2" stop-color="#F2D0EF"/>
<stop offset="0.21" stop-color="#E400E4"/>
<stop offset="0.22" stop-color="#8C008C"/>
<stop offset="0.23" stop-color="#510151"/>
<stop offset="0.25" stop-color="#3F023F"/>
<stop offset="0.38" stop-color="#400240"/>
<stop offset="0.5" stop-color="#2B012B"/>
<stop offset="0.63" stop-color="#200120"/>
<stop offset="0.75" stop-color="#000710"/>
<stop offset="0.88" stop-color="#000204"/>
<stop offset="1"/>
</radialGradient>
</defs>
</svg>
