<svg width="358" height="319" viewBox="0 0 358 319" fill="none" xmlns="http://www.w3.org/2000/svg">
<g clip-path="url(#clip0_2125_2355)">
<g opacity="0.7" filter="url(#filter0_f_2125_2355)">
<rect x="-82.75" y="-254" width="180.741" height="188" fill="#800080" fill-opacity="0.66"/>
</g>
<path style="mix-blend-mode:screen" d="M179.331 318.794L0.171935 231.082L0.171935 0.171935L357.32 0.171935V231.083L179.331 318.794Z" fill="url(#paint0_linear_2125_2355)" fill-opacity="0.1" stroke="url(#paint1_linear_2125_2355)" stroke-width="0.343869"/>
<path style="mix-blend-mode:screen" d="M178.777 253.669L98.7531 214.495L98.7531 1.43279L258.279 1.43279V214.495L178.777 253.669Z" fill="url(#paint2_linear_2125_2355)" fill-opacity="0.1" stroke="url(#paint3_linear_2125_2355)" stroke-width="0.240573"/>
<path style="mix-blend-mode:screen" d="M179.144 293.557L50.2718 230.456L50.2718 64.3929L307.181 64.3929V230.465L179.144 293.557Z" fill="url(#paint4_linear_2125_2355)" fill-opacity="0.1" stroke="url(#paint5_linear_2125_2355)" stroke-width="0.481146"/>
<g opacity="0.7" filter="url(#filter1_f_2125_2355)">
<rect x="272.25" y="203.453" width="154.87" height="161.09" fill="#800080" fill-opacity="0.87"/>
</g>
<path style="mix-blend-mode:screen" opacity="0.37" d="M249.476 202.581C249.664 201.99 249.988 201.482 250.405 201.121C250.823 200.761 251.316 200.564 251.822 200.555C252.328 200.547 252.825 200.727 253.248 201.074C253.671 201.42 254.003 201.917 254.2 202.501C254.398 203.086 254.452 203.731 254.357 204.355C254.262 204.98 254.021 205.555 253.665 206.009C253.31 206.463 252.855 206.774 252.359 206.903C251.863 207.032 251.349 206.974 250.88 206.735C250.256 206.417 249.759 205.802 249.496 205.024C249.233 204.246 249.226 203.367 249.476 202.581Z" fill="url(#paint6_radial_2125_2355)" fill-opacity="0.7"/>
<path style="mix-blend-mode:screen" opacity="0.72" d="M118.398 218.857C118.671 218.004 119.138 217.271 119.742 216.75C120.345 216.229 121.057 215.944 121.788 215.93C122.519 215.917 123.236 216.176 123.849 216.674C124.461 217.173 124.942 217.889 125.229 218.731C125.517 219.574 125.599 220.506 125.465 221.408C125.331 222.311 124.988 223.145 124.477 223.804C123.967 224.464 123.312 224.919 122.597 225.112C121.882 225.306 121.138 225.229 120.459 224.892C120.007 224.667 119.596 224.333 119.247 223.908C118.899 223.483 118.621 222.976 118.43 222.415C118.239 221.855 118.137 221.252 118.132 220.641C118.126 220.031 118.217 219.424 118.398 218.857Z" fill="url(#paint7_radial_2125_2355)" fill-opacity="0.7"/>
<path style="mix-blend-mode:screen" opacity="0.49" d="M95.7253 211.185C95.9485 210.503 96.3277 209.918 96.815 209.504C97.3023 209.091 97.8757 208.868 98.4628 208.863C99.05 208.858 99.6244 209.073 100.114 209.478C100.603 209.884 100.985 210.463 101.211 211.142C101.438 211.821 101.498 212.57 101.386 213.294C101.273 214.018 100.992 214.684 100.578 215.209C100.165 215.734 99.6368 216.094 99.0614 216.242C98.4859 216.391 97.8888 216.323 97.3455 216.045C96.6175 215.672 96.0382 214.95 95.7345 214.039C95.4308 213.128 95.4275 212.102 95.7253 211.185Z" fill="url(#paint8_radial_2125_2355)" fill-opacity="0.7"/>
<path style="mix-blend-mode:screen" opacity="0.4" d="M15.0755 198.959C16.006 196.106 17.5882 193.662 19.6221 191.934C21.6561 190.206 24.0504 189.272 26.5023 189.251C28.9542 189.229 31.3537 190.121 33.3974 191.813C35.4411 193.506 37.0372 195.923 37.9839 198.758C38.9307 201.594 39.1856 204.722 38.7164 207.745C38.2471 210.769 37.0748 213.553 35.3477 215.746C33.6207 217.938 31.4163 219.441 29.0134 220.063C26.6105 220.686 24.1168 220.401 21.8478 219.244C20.3405 218.475 18.9696 217.34 17.8135 215.905C16.6573 214.469 15.7385 212.761 15.1096 210.877C14.4807 208.993 14.154 206.971 14.1481 204.926C14.1423 202.881 14.4574 200.853 15.0755 198.959Z" fill="url(#paint9_radial_2125_2355)" fill-opacity="0.7"/>
<path style="mix-blend-mode:screen" d="M145.14 268.097C145.785 266.116 146.883 264.418 148.295 263.217C149.707 262.017 151.369 261.368 153.071 261.352C154.774 261.336 156.44 261.955 157.859 263.129C159.279 264.304 160.387 265.982 161.045 267.95C161.703 269.919 161.881 272.091 161.555 274.19C161.23 276.29 160.416 278.223 159.217 279.746C158.018 281.268 156.488 282.312 154.819 282.745C153.151 283.177 151.419 282.98 149.844 282.176C148.798 281.643 147.846 280.856 147.043 279.859C146.24 278.863 145.602 277.677 145.165 276.37C144.729 275.062 144.502 273.659 144.497 272.239C144.493 270.82 144.711 269.412 145.14 268.097Z" fill="url(#paint10_radial_2125_2355)" fill-opacity="0.7"/>
<path style="mix-blend-mode:screen" opacity="0.48" d="M163.592 223.373C163.814 222.695 164.19 222.114 164.674 221.703C165.159 221.293 165.728 221.072 166.311 221.067C166.895 221.063 167.465 221.276 167.951 221.679C168.437 222.082 168.816 222.657 169.04 223.332C169.265 224.007 169.325 224.751 169.213 225.47C169.101 226.189 168.822 226.851 168.411 227.372C168 227.893 167.475 228.25 166.904 228.397C166.332 228.545 165.739 228.476 165.199 228.201C164.841 228.018 164.515 227.747 164.24 227.406C163.965 227.064 163.747 226.657 163.597 226.209C163.448 225.76 163.371 225.279 163.37 224.792C163.369 224.306 163.444 223.823 163.592 223.373Z" fill="url(#paint11_radial_2125_2355)" fill-opacity="0.7"/>
<path style="mix-blend-mode:screen" opacity="0.48" d="M330.263 229.823C330.835 228.074 331.807 226.575 333.056 225.517C334.305 224.459 335.774 223.888 337.278 223.877C338.783 223.865 340.254 224.415 341.507 225.454C342.76 226.494 343.738 227.978 344.318 229.718C344.897 231.458 345.052 233.377 344.763 235.232C344.474 237.086 343.754 238.794 342.693 240.138C341.633 241.482 340.28 242.402 338.806 242.783C337.332 243.164 335.802 242.987 334.41 242.276C333.485 241.804 332.644 241.107 331.935 240.225C331.226 239.343 330.663 238.294 330.278 237.137C329.893 235.981 329.693 234.739 329.691 233.484C329.688 232.229 329.883 230.985 330.263 229.823Z" fill="url(#paint12_radial_2125_2355)" fill-opacity="0.7"/>
<path style="mix-blend-mode:screen" opacity="0.4" d="M368.182 -0.891674C370.9 -2.16334 373.133 -4.0321 374.6 -6.26171C376.066 -8.49132 376.701 -10.9817 376.423 -13.4179C376.145 -15.8541 374.967 -18.1268 373.038 -19.9487C371.109 -21.7705 368.515 -23.0597 365.585 -23.6532C362.655 -24.2468 359.52 -24.118 356.576 -23.2833C353.632 -22.4485 351.012 -20.9451 349.046 -18.9633C347.081 -16.9816 345.859 -14.6103 345.534 -12.1494C345.21 -9.68839 345.797 -7.24821 347.222 -5.13738C348.169 -3.73518 349.463 -2.51302 351.029 -1.54072C352.595 -0.568425 354.402 0.134953 356.349 0.529234C358.295 0.923515 360.342 1.00098 362.373 0.757177C364.403 0.513373 366.377 -0.0469272 368.182 -0.891674Z" fill="url(#paint13_radial_2125_2355)" fill-opacity="0.7"/>
<path style="mix-blend-mode:screen" opacity="0.4" d="M-17.4088 -0.891674C-20.1261 -2.16334 -22.3594 -4.0321 -23.8262 -6.26171C-25.293 -8.49132 -25.9275 -10.9817 -25.6495 -13.4179C-25.3715 -15.8541 -24.1934 -18.1268 -22.2643 -19.9487C-20.3352 -21.7705 -17.7416 -23.0597 -14.8115 -23.6532C-11.8813 -24.2468 -8.74613 -24.118 -5.80237 -23.2833C-2.85861 -22.4485 -0.238426 -20.9451 1.72694 -18.9633C3.69231 -16.9816 4.91453 -14.6103 5.23921 -12.1494C5.56388 -9.68839 4.97638 -7.24821 3.55096 -5.13738C2.60407 -3.73518 1.31073 -2.51302 -0.255223 -1.54072C-1.82118 -0.568425 -3.62901 0.134953 -5.57546 0.529234C-7.52191 0.923515 -9.56883 1.00098 -11.5992 0.757177C-13.6297 0.513373 -15.6038 -0.0469272 -17.4088 -0.891674Z" fill="url(#paint14_radial_2125_2355)" fill-opacity="0.7"/>
</g>
<defs>
<filter id="filter0_f_2125_2355" x="-244.111" y="-415.361" width="503.463" height="510.721" filterUnits="userSpaceOnUse" color-interpolation-filters="sRGB">
<feFlood flood-opacity="0" result="BackgroundImageFix"/>
<feBlend mode="normal" in="SourceGraphic" in2="BackgroundImageFix" result="shape"/>
<feGaussianBlur stdDeviation="80.6803" result="effect1_foregroundBlur_2125_2355"/>
</filter>
<filter id="filter1_f_2125_2355" x="133.986" y="65.1895" width="431.395" height="437.617" filterUnits="userSpaceOnUse" color-interpolation-filters="sRGB">
<feFlood flood-opacity="0" result="BackgroundImageFix"/>
<feBlend mode="normal" in="SourceGraphic" in2="BackgroundImageFix" result="shape"/>
<feGaussianBlur stdDeviation="69.1318" result="effect1_foregroundBlur_2125_2355"/>
</filter>
<linearGradient id="paint0_linear_2125_2355" x1="178.741" y1="272.591" x2="178.741" y2="-9.9292" gradientUnits="userSpaceOnUse">
<stop stop-color="#AB49E4"/>
<stop offset="1"/>
</linearGradient>
<linearGradient id="paint1_linear_2125_2355" x1="179.059" y1="323.551" x2="178.995" y2="-9.92309" gradientUnits="userSpaceOnUse">
<stop stop-color="#AB49E4"/>
<stop offset="0.358006"/>
</linearGradient>
<linearGradient id="paint2_linear_2125_2355" x1="178.511" y1="217.079" x2="178.511" y2="-6.54916" gradientUnits="userSpaceOnUse">
<stop stop-color="#AB49E4"/>
<stop offset="1"/>
</linearGradient>
<linearGradient id="paint3_linear_2125_2355" x1="178.656" y1="257.417" x2="178.567" y2="-6.54203" gradientUnits="userSpaceOnUse">
<stop stop-color="#AB49E4"/>
<stop offset="0.261759"/>
</linearGradient>
<linearGradient id="paint4_linear_2125_2355" x1="178.722" y1="260.419" x2="178.722" y2="57.0077" gradientUnits="userSpaceOnUse">
<stop stop-color="#AB49E4"/>
<stop offset="1"/>
</linearGradient>
<linearGradient id="paint5_linear_2125_2355" x1="178.952" y1="297.112" x2="178.906" y2="57.0076" gradientUnits="userSpaceOnUse">
<stop stop-color="#AB49E4"/>
<stop offset="0.261759"/>
</linearGradient>
<radialGradient id="paint6_radial_2125_2355" cx="0" cy="0" r="1" gradientUnits="userSpaceOnUse" gradientTransform="translate(250.408 204.375) rotate(-71.8002) scale(3.13028 2.62707)">
<stop offset="0.2" stop-color="#F2D0EF"/>
<stop offset="0.21" stop-color="#E400E4"/>
<stop offset="0.22" stop-color="#8C008C"/>
<stop offset="0.23" stop-color="#510151"/>
<stop offset="0.25" stop-color="#3F023F"/>
<stop offset="0.38" stop-color="#400240"/>
<stop offset="0.5" stop-color="#2B012B"/>
<stop offset="0.63" stop-color="#200120"/>
<stop offset="0.75" stop-color="#000710"/>
<stop offset="0.88" stop-color="#000204"/>
<stop offset="1"/>
</radialGradient>
<radialGradient id="paint7_radial_2125_2355" cx="0" cy="0" r="1" gradientUnits="userSpaceOnUse" gradientTransform="translate(119.746 221.46) rotate(-71.8002) scale(4.53155 3.80309)">
<stop offset="0.2" stop-color="#F2D0EF"/>
<stop offset="0.21" stop-color="#E400E4"/>
<stop offset="0.22" stop-color="#8C008C"/>
<stop offset="0.23" stop-color="#510151"/>
<stop offset="0.25" stop-color="#3F023F"/>
<stop offset="0.38" stop-color="#400240"/>
<stop offset="0.5" stop-color="#2B012B"/>
<stop offset="0.63" stop-color="#200120"/>
<stop offset="0.75" stop-color="#000710"/>
<stop offset="0.88" stop-color="#000204"/>
<stop offset="1"/>
</radialGradient>
<radialGradient id="paint8_radial_2125_2355" cx="0" cy="0" r="1" gradientUnits="userSpaceOnUse" gradientTransform="translate(96.7987 213.303) rotate(-71.8003) scale(3.63831 3.05328)">
<stop offset="0.2" stop-color="#F2D0EF"/>
<stop offset="0.21" stop-color="#E400E4"/>
<stop offset="0.22" stop-color="#8C008C"/>
<stop offset="0.23" stop-color="#510151"/>
<stop offset="0.25" stop-color="#3F023F"/>
<stop offset="0.38" stop-color="#400240"/>
<stop offset="0.5" stop-color="#2B012B"/>
<stop offset="0.63" stop-color="#200120"/>
<stop offset="0.75" stop-color="#000710"/>
<stop offset="0.88" stop-color="#000204"/>
<stop offset="1"/>
</radialGradient>
<radialGradient id="paint9_radial_2125_2355" cx="0" cy="0" r="1" gradientUnits="userSpaceOnUse" gradientTransform="translate(19.5603 207.789) rotate(-71.8002) scale(15.1925 12.7503)">
<stop offset="0.2" stop-color="#F2D0EF"/>
<stop offset="0.21" stop-color="#E400E4"/>
<stop offset="0.22" stop-color="#8C008C"/>
<stop offset="0.23" stop-color="#510151"/>
<stop offset="0.25" stop-color="#3F023F"/>
<stop offset="0.38" stop-color="#400240"/>
<stop offset="0.5" stop-color="#2B012B"/>
<stop offset="0.63" stop-color="#200120"/>
<stop offset="0.75" stop-color="#000710"/>
<stop offset="0.88" stop-color="#000204"/>
<stop offset="1"/>
</radialGradient>
<radialGradient id="paint10_radial_2125_2355" cx="0" cy="0" r="1" gradientUnits="userSpaceOnUse" gradientTransform="translate(148.255 274.223) rotate(-71.8002) scale(10.5481 8.8525)">
<stop offset="0.2" stop-color="#F2D0EF"/>
<stop offset="0.21" stop-color="#E400E4"/>
<stop offset="0.22" stop-color="#8C008C"/>
<stop offset="0.23" stop-color="#510151"/>
<stop offset="0.25" stop-color="#3F023F"/>
<stop offset="0.38" stop-color="#400240"/>
<stop offset="0.5" stop-color="#2B012B"/>
<stop offset="0.63" stop-color="#200120"/>
<stop offset="0.75" stop-color="#000710"/>
<stop offset="0.88" stop-color="#000204"/>
<stop offset="1"/>
</radialGradient>
<radialGradient id="paint11_radial_2125_2355" cx="0" cy="0" r="1" gradientUnits="userSpaceOnUse" gradientTransform="translate(164.657 225.477) rotate(-71.8002) scale(3.61375 3.03286)">
<stop offset="0.2" stop-color="#F2D0EF"/>
<stop offset="0.21" stop-color="#E400E4"/>
<stop offset="0.22" stop-color="#8C008C"/>
<stop offset="0.23" stop-color="#510151"/>
<stop offset="0.25" stop-color="#3F023F"/>
<stop offset="0.38" stop-color="#400240"/>
<stop offset="0.5" stop-color="#2B012B"/>
<stop offset="0.63" stop-color="#200120"/>
<stop offset="0.75" stop-color="#000710"/>
<stop offset="0.88" stop-color="#000204"/>
<stop offset="1"/>
</radialGradient>
<radialGradient id="paint12_radial_2125_2355" cx="0" cy="0" r="1" gradientUnits="userSpaceOnUse" gradientTransform="translate(333.011 235.251) rotate(-71.8002) scale(9.32127 7.82292)">
<stop offset="0.2" stop-color="#F2D0EF"/>
<stop offset="0.21" stop-color="#E400E4"/>
<stop offset="0.22" stop-color="#8C008C"/>
<stop offset="0.23" stop-color="#510151"/>
<stop offset="0.25" stop-color="#3F023F"/>
<stop offset="0.38" stop-color="#400240"/>
<stop offset="0.5" stop-color="#2B012B"/>
<stop offset="0.63" stop-color="#200120"/>
<stop offset="0.75" stop-color="#000710"/>
<stop offset="0.88" stop-color="#000204"/>
<stop offset="1"/>
</radialGradient>
<radialGradient id="paint13_radial_2125_2355" cx="0" cy="0" r="1" gradientUnits="userSpaceOnUse" gradientTransform="translate(358.871 -4.26512) rotate(-25.2106) scale(15.1925 12.7503)">
<stop offset="0.2" stop-color="#F2D0EF"/>
<stop offset="0.21" stop-color="#E400E4"/>
<stop offset="0.22" stop-color="#8C008C"/>
<stop offset="0.23" stop-color="#510151"/>
<stop offset="0.25" stop-color="#3F023F"/>
<stop offset="0.38" stop-color="#400240"/>
<stop offset="0.5" stop-color="#2B012B"/>
<stop offset="0.63" stop-color="#200120"/>
<stop offset="0.75" stop-color="#000710"/>
<stop offset="0.88" stop-color="#000204"/>
<stop offset="1"/>
</radialGradient>
<radialGradient id="paint14_radial_2125_2355" cx="0" cy="0" r="1" gradientUnits="userSpaceOnUse" gradientTransform="translate(-8.09721 -4.26512) rotate(-154.789) scale(15.1925 12.7503)">
<stop offset="0.2" stop-color="#F2D0EF"/>
<stop offset="0.21" stop-color="#E400E4"/>
<stop offset="0.22" stop-color="#8C008C"/>
<stop offset="0.23" stop-color="#510151"/>
<stop offset="0.25" stop-color="#3F023F"/>
<stop offset="0.38" stop-color="#400240"/>
<stop offset="0.5" stop-color="#2B012B"/>
<stop offset="0.63" stop-color="#200120"/>
<stop offset="0.75" stop-color="#000710"/>
<stop offset="0.88" stop-color="#000204"/>
<stop offset="1"/>
</radialGradient>
<clipPath id="clip0_2125_2355">
<rect width="357.492" height="319" fill="white"/>
</clipPath>
</defs>
</svg>
