<svg xmlns="http://www.w3.org/2000/svg" width="39" height="49" viewBox="0 0 39 49" fill="none">
  <path d="M21.9375 17.0625H35.3438L21.9375 3.65625V17.0625ZM4.875 0H24.375L39 14.625V43.875C39 45.1679 38.4864 46.4079 37.5721 47.3221C36.6579 48.2364 35.4179 48.75 34.125 48.75H4.875C3.58207 48.75 2.34209 48.2364 1.42785 47.3221C0.513614 46.4079 0 45.1679 0 43.875V4.875C0 2.16937 2.16937 0 4.875 0ZM24.375 43.875V41.4375C24.375 38.1956 17.8669 36.5625 14.625 36.5625C11.3831 36.5625 4.875 38.1956 4.875 41.4375V43.875H24.375ZM14.625 24.375C13.3321 24.375 12.0921 24.8886 11.1779 25.8029C10.2636 26.7171 9.75 27.9571 9.75 29.25C9.75 30.5429 10.2636 31.7829 11.1779 32.6971C12.0921 33.6114 13.3321 34.125 14.625 34.125C15.9179 34.125 17.1579 33.6114 18.0721 32.6971C18.9864 31.7829 19.5 30.5429 19.5 29.25C19.5 27.9571 18.9864 26.7171 18.0721 25.8029C17.1579 24.8886 15.9179 24.375 14.625 24.375Z" fill="url(#paint0_linear_2037_3706)"/>
  <defs>
    <linearGradient id="paint0_linear_2037_3706" x1="0" y1="0" x2="38.5651" y2="0.521838" gradientUnits="userSpaceOnUse">
      <stop stop-color="#E6C689"/>
      <stop offset="0.290348" stop-color="#FCE6BD"/>
      <stop offset="1" stop-color="#BF9C5E"/>
    </linearGradient>
  </defs>
</svg>