<svg xmlns="http://www.w3.org/2000/svg" width="63" height="63" viewBox="0 0 63 63" fill="none">
  <path fill-rule="evenodd" clip-rule="evenodd" d="M18.7731 14.1342V17.8094L14.3886 18.1666C12.8824 18.2878 11.4603 18.9106 10.3497 19.9353C9.23907 20.96 8.50413 22.3276 8.26236 23.8192C8.15624 24.487 8.0553 25.1547 7.9673 25.8251C7.94635 25.9872 7.97743 26.1517 8.05604 26.295C8.13466 26.4382 8.25675 26.5529 8.40471 26.6222L8.604 26.7154C22.6554 33.3671 39.4813 33.3671 53.5301 26.7154L53.7294 26.6222C53.8768 26.5524 53.9984 26.4377 54.0765 26.2944C54.1546 26.1512 54.1853 25.9869 54.1642 25.8251C54.0765 25.1551 53.979 24.4864 53.8717 23.8192C53.6299 22.3276 52.895 20.96 51.7844 19.9353C50.6738 18.9106 49.2517 18.2878 47.7454 18.1666L43.361 17.812V14.1367C43.3613 13.0519 42.9722 12.003 42.2644 11.1808C41.5567 10.3586 40.5774 9.81774 39.5046 9.65656L36.347 9.18292C32.8466 8.65778 29.2875 8.65778 25.7871 9.18292L22.6295 9.65656C21.5571 9.81767 20.5782 10.3582 19.8705 11.1798C19.1628 12.0015 18.7734 13.0498 18.7731 14.1342ZM35.7698 13.0212C32.6521 12.5536 29.482 12.5536 26.3643 13.0212L23.2067 13.4949C23.0535 13.5178 22.9136 13.5949 22.8124 13.7122C22.7112 13.8295 22.6555 13.9792 22.6554 14.1342V17.5376C28.2586 17.2167 33.8755 17.2167 39.4787 17.5376V14.1342C39.4785 13.9792 39.4228 13.8295 39.3217 13.7122C39.2205 13.5949 39.0806 13.5178 38.9274 13.4949L35.7698 13.0212Z" fill="url(#paint0_linear_2037_3713)"/>
  <path d="M54.6568 31.2398C54.6517 31.1562 54.6263 31.075 54.5828 31.0033C54.5394 30.9316 54.4792 30.8715 54.4074 30.8282C54.3356 30.7849 54.2543 30.7598 54.1707 30.7548C54.087 30.7499 54.0033 30.7653 53.9269 30.7999C39.508 37.185 22.6071 37.185 8.18816 30.7999C8.11177 30.7653 8.02813 30.7499 7.94444 30.7548C7.86075 30.7598 7.77951 30.7849 7.70771 30.8282C7.63591 30.8715 7.5757 30.9316 7.53225 31.0033C7.4888 31.075 7.46342 31.1562 7.45829 31.2398C7.19378 36.1949 7.46015 41.1641 8.25287 46.0625C8.49411 47.5546 9.22882 48.9227 10.3395 49.948C11.4501 50.9732 12.8725 51.5964 14.3792 51.7177L19.2243 52.106C27.1002 52.7427 35.0123 52.7427 42.8908 52.106L47.7359 51.7177C49.2426 51.5964 50.665 50.9732 51.7756 49.948C52.8863 48.9227 53.621 47.5546 53.8622 46.0625C54.6542 41.1579 54.9234 36.1885 54.6568 31.2424" fill="url(#paint1_linear_2037_3713)"/>
  <defs>
    <linearGradient id="paint0_linear_2037_3713" x1="7.96094" y1="8.78906" x2="53.6106" y2="10.3461" gradientUnits="userSpaceOnUse">
      <stop stop-color="#E6C689"/>
      <stop offset="0.290348" stop-color="#FCE6BD"/>
      <stop offset="1" stop-color="#BF9C5E"/>
    </linearGradient>
    <linearGradient id="paint1_linear_2037_3713" x1="7.35937" y1="30.7539" x2="54.1734" y2="32.4731" gradientUnits="userSpaceOnUse">
      <stop stop-color="#E6C689"/>
      <stop offset="0.290348" stop-color="#FCE6BD"/>
      <stop offset="1" stop-color="#BF9C5E"/>
    </linearGradient>
  </defs>
</svg>