<svg xmlns="http://www.w3.org/2000/svg" width="55" height="55" viewBox="0 0 55 55" fill="none">
  <path d="M27.1217 39.3324C25.7578 39.3327 24.4437 38.8192 23.4413 37.8942C22.4389 36.9692 21.8217 35.7006 21.7126 34.341C18.0944 33.0603 15.0449 30.5425 13.1025 27.232C11.1602 23.9216 10.4498 20.0313 11.0968 16.248C11.7438 12.4647 13.7065 9.03166 16.6386 6.55479C19.5707 4.07791 23.2835 2.71653 27.1217 2.71094C31.2041 2.71035 35.1375 4.24385 38.1423 7.00738C41.147 9.77092 43.0035 13.5627 43.3437 17.6308C43.355 17.8073 43.3295 17.9841 43.2688 18.1502C43.2081 18.3163 43.1135 18.4679 42.9911 18.5955C42.8686 18.723 42.721 18.8237 42.5575 18.8912C42.3941 18.9586 42.2184 18.9913 42.0416 18.9871C41.6782 18.978 41.3312 18.8342 41.068 18.5835C40.8048 18.3328 40.6442 17.9933 40.6174 17.6308C40.3758 15.2323 39.4993 12.9416 38.0783 10.9944C36.6572 9.04717 34.7428 7.51388 32.5323 6.55236C30.3217 5.59084 27.8949 5.23582 25.5015 5.52386C23.1082 5.8119 20.8348 6.73258 18.9156 8.19113C16.9963 9.64968 15.5004 11.5934 14.5819 13.8222C13.6634 16.0509 13.3554 18.4842 13.6898 20.8715C14.0242 23.2589 14.9887 25.5139 16.4842 27.4046C17.9797 29.2952 19.952 30.7532 22.1982 31.6283C22.6069 30.7452 23.2456 29.9883 24.0473 29.4368C24.8491 28.8854 25.7844 28.5597 26.7553 28.494C27.7262 28.4283 28.6969 28.6249 29.5657 29.0632C30.4345 29.5015 31.1694 30.1654 31.6934 30.9854C32.2174 31.8054 32.5113 32.7512 32.5442 33.7237C32.577 34.6963 32.3477 35.6597 31.8803 36.5132C31.4128 37.3667 30.7244 38.0787 29.8872 38.5747C29.05 39.0707 28.0948 39.3324 27.1217 39.3324ZM13.5826 32.5507H13.8295C15.4309 34.1216 17.2981 35.3964 19.3444 36.3159C19.9458 38.3001 21.2818 39.9799 23.0797 41.0125C24.8776 42.045 27.0018 42.3524 29.0187 41.8719C31.0356 41.3914 32.793 40.1592 33.9322 38.4269C35.0714 36.6946 35.5065 34.5929 35.1486 32.5507H40.6852C42.1241 32.5507 43.5041 33.1223 44.5216 34.1397C45.539 35.1572 46.1106 36.5372 46.1106 37.9761C46.1106 42.5632 43.851 46.0219 40.319 48.2762C36.8413 50.4925 32.1538 51.5396 27.1217 51.5396C22.0897 51.5396 17.4021 50.4925 13.9244 48.2762C10.3925 46.0247 8.13281 42.5605 8.13281 37.9761C8.13281 34.9568 10.5824 32.5507 13.5826 32.5507ZM37.9725 18.9871C37.9731 20.8227 37.5081 22.6283 36.6209 24.2352C35.7337 25.8421 34.4534 27.1977 32.8998 28.1751C32.1431 27.4125 31.243 26.8073 30.2513 26.3943C29.2596 25.9813 28.196 25.7688 27.1217 25.7689C26.0475 25.7688 24.9838 25.9813 23.9921 26.3943C23.0004 26.8073 22.1003 27.4125 21.3437 28.1751C19.2832 26.8793 17.7182 24.9283 16.9003 22.6357C16.483 21.4646 16.2701 20.2304 16.2709 18.9871C16.2709 16.1093 17.4141 13.3494 19.449 11.3145C21.484 9.27955 24.2439 8.13634 27.1217 8.13634C29.9995 8.13634 32.7595 9.27955 34.7944 11.3145C36.8293 13.3494 37.9725 16.1093 37.9725 18.9871Z" fill="url(#paint0_linear_2037_3722)"/>
  <defs>
    <linearGradient id="paint0_linear_2037_3722" x1="8.13281" y1="2.71094" x2="45.6875" y2="3.20499" gradientUnits="userSpaceOnUse">
      <stop stop-color="#E6C689"/>
      <stop offset="0.290348" stop-color="#FCE6BD"/>
      <stop offset="1" stop-color="#BF9C5E"/>
    </linearGradient>
  </defs>
</svg>